<?xml version="1.0" encoding="UTF-8"?>
<svg width="48px" height="48px" viewBox="0 0 48 48" version="1.1" xmlns="http://www.w3.org/2000/svg" xmlns:xlink="http://www.w3.org/1999/xlink">
    <title>Repapplic</title>
    <g id="EXPORT" stroke="none" stroke-width="1" fill="none" fill-rule="evenodd">
        <path d="M40.9705627,7.02943725 C50.3431458,16.4020203 50.3431458,31.5979797 40.9705627,40.9705627 C31.5979797,50.3431458 16.4020203,50.3431458 7.02943725,40.9705627 C-2.34314575,31.5979797 -2.34314575,16.4020203 7.02943725,7.02943725 C16.4020203,-2.34314575 31.5979797,-2.34314575 40.9705627,7.02943725 Z M28.2578121,31.0949625 C27.5860132,30.4231746 26.5564408,30.3272049 25.7824209,30.8070534 L25.6086165,30.9280093 L25.4195464,31.0949625 L21.162148,35.3522914 L21.0158451,35.5152462 C20.3818659,36.3033083 20.4306336,37.4590082 21.162148,38.1905107 C21.8339469,38.8622986 22.8635193,38.9582683 23.6375392,38.4784198 L23.8113436,38.3574639 L24.0004136,38.1905107 L28.2578121,33.9331818 L28.404115,33.770227 C29.0380941,32.9821649 28.9893265,31.826465 28.2578121,31.0949625 Z M33.9343434,14.065647 C33.2625445,13.393859 32.2329721,13.2978893 31.4589522,13.7777378 L31.2851478,13.8986937 L31.0960778,14.065647 L18.3238823,26.8376336 L18.1775794,27.0005884 C17.5436003,27.7886505 17.5923679,28.9443505 18.3238823,29.6758529 C18.9956812,30.3476408 20.0252536,30.4436105 20.7992735,29.963762 L20.9730779,29.8428061 L21.162148,29.6758529 L33.9343434,16.9038662 L34.0806463,16.7409115 C34.7146254,15.9528494 34.6658578,14.7971494 33.9343434,14.065647 Z M22.5812808,14.065647 C21.9094819,13.393859 20.8799095,13.2978893 20.1058896,13.7777378 L19.9320852,13.8986937 L19.7430151,14.065647 L11.2282182,22.5803047 L11.0819153,22.7432595 C10.4479361,23.5313216 10.4967038,24.6870216 11.2282182,25.418524 C11.9000171,26.090312 12.9295895,26.1862817 13.7036094,25.7064331 L13.8774137,25.5854772 L14.0664838,25.418524 L22.5812808,16.9038662 L22.7275837,16.7409115 C23.3615628,15.9528494 23.3127952,14.7971494 22.5812808,14.065647 Z" id="Repapplic" fill="#000000"></path>
    </g>
</svg>