<svg xmlns="http://www.w3.org/2000/svg" viewBox="0 0 183.09 48.36">
  <g>
    <g>
      <path d="M46,24.49c0-3.8,3.64-7.14,8.26-7.14a6.87,6.87,0,0,1,6,3.06l-3.05,2.37a3.83,3.83,0,0,0-3.24-2c-1.94,0-3.35,1.53-3.35,3.78a3.69,3.69,0,0,0,6.92,1.77l2.95,1.91a7.09,7.09,0,0,1-6.46,3.37C49.59,31.58,46,28.4,46,24.49Z" fill="#0f1031"/>
      <path d="M61.29,10.67h1.54a10.75,10.75,0,0,0,3-.25V31.27H61.29Z" fill="#0f1031"/>
      <path d="M67.94,26.62v-9h1.54a9.51,9.51,0,0,0,3-.25v8.3c0,1.66.69,2.25,2.07,2.25,2.06,0,3.4-1.37,3.4-3.75V17.66h1.55a9.58,9.58,0,0,0,3-.25V31.27H77.9V29a5.67,5.67,0,0,1-5.08,2.56C69.84,31.58,67.94,30,67.94,26.62Z" fill="#0f1031"/>
      <path d="M83.24,29.61l2.13-2.4a5.34,5.34,0,0,0,4,1.43c1.61,0,2.52-.46,2.52-1.27,0-.57-.42-.94-1.7-1.16l-2.33-.37c-2.68-.44-4-1.94-4-3.81,0-2.78,2.89-4.68,6.59-4.68,2.52,0,4.72.87,5.6,2.18L93.7,21.81a4.31,4.31,0,0,0-3.44-1.53c-1.31,0-2.13.47-2.13,1.31,0,.63.46,1,2.06,1.25l1.9.34c2.76.5,4.1,1.81,4.1,3.72,0,2.84-3,4.68-7.08,4.68C86.49,31.58,84.19,30.8,83.24,29.61Z" fill="#0f1031"/>
      <path d="M97.76,26V20.94H95.34V18.13l.23,0c2.29-.31,3.54-1.66,3.54-3.87v-.81h.19a10.93,10.93,0,0,0,3-.25v4.49h5.21v3.28h-5.21v5.74c0,1.15.56,1.75,1.38,1.75a2.55,2.55,0,0,0,2-1.69l3,1.81a5.42,5.42,0,0,1-5.21,3C100.06,31.58,97.76,29.39,97.76,26Z" fill="#0f1031"/>
      <path d="M107.4,24.49c0-3.83,3.54-7.14,7.53-7.14s7.18,3.12,7.18,7.8H111.92a3.5,3.5,0,0,0,3.8,3.25A3.22,3.22,0,0,0,119,26.59l3.09,1.62c-1.09,2-3.25,3.37-6.56,3.37C110.84,31.58,107.4,28.43,107.4,24.49Zm4.52-1.56h5.7a2.73,2.73,0,0,0-2.75-2.77A3,3,0,0,0,111.92,22.93Z" fill="#0f1031"/>
      <path d="M123.26,17.66h1.54a9.7,9.7,0,0,0,3-.25v2.72a4.12,4.12,0,0,1,4-2.78,4,4,0,0,1,3.81,2.46l-3.08,2.53a2.21,2.21,0,0,0-2-1.34c-1.54,0-2.68,1.28-2.68,3.43v6.84h-4.49Z" fill="#0f1031"/>
      <path d="M135,13.29a2.58,2.58,0,1,1,2.59,2.44A2.47,2.47,0,0,1,135,13.29Zm.33,4.37h1.54a10.93,10.93,0,0,0,3-.25V31.27h-4.49Z" fill="#0f1031"/>
      <path d="M141.15,28.58l7.54-7.77h-7.18V17.66h12.91v2.68l-7.5,7.77h7.86v3.16H141.15Z" fill="#0f1031"/>
      <path d="M154.94,24.49c0-3.83,3.54-7.14,7.54-7.14s7.18,3.12,7.18,7.8H159.47a3.5,3.5,0,0,0,3.8,3.25,3.22,3.22,0,0,0,3.24-1.81l3.08,1.62c-1.08,2-3.24,3.37-6.55,3.37C158.38,31.58,154.94,28.43,154.94,24.49Zm4.53-1.56h5.7a2.73,2.73,0,0,0-2.75-2.77A3,3,0,0,0,159.47,22.93Z" fill="#0f1031"/>
      <path d="M170.8,17.66h1.54a9.62,9.62,0,0,0,2.95-.25v2.72a4.14,4.14,0,0,1,4-2.78,4,4,0,0,1,3.8,2.46L180,22.34A2.19,2.19,0,0,0,178,21c-1.54,0-2.69,1.28-2.69,3.43v6.84H170.8Z" fill="#0f1031"/>
    </g>
    <g>
      <rect x="12.96" y="22.98" width="4" height="16.57" transform="translate(-15.89 15.47) rotate(-37.32)" fill="#58595b"/>
      <rect x="14.21" y="7.01" width="4" height="16.57" transform="translate(12.59 -6.7) rotate(37.32)" fill="#58595b"/>
      <rect x="28.46" y="1.1" width="4" height="16.57" transform="matrix(0.3, -0.95, 0.95, 0.3, 12.34, 35.6)" fill="#58595b"/>
      <rect x="28.72" y="31.78" width="4" height="16.57" transform="translate(6.77 84.5) rotate(-114.2)" fill="#58595b"/>
      <circle cx="9.95" cy="24.72" r="9.95" fill="#bc88bc"/>
      <circle cx="22.49" cy="41.73" r="6.63" fill="#74d0f2"/>
      <circle cx="22.49" cy="6.92" r="6.92" fill="#f06d7f"/>
      <circle cx="37.73" cy="11.39" r="4.42" fill="#f89c4b"/>
      <circle cx="37.73" cy="37.65" r="4.42" fill="#95cc75"/>
    </g>
  </g>
</svg>
