<?xml version="1.0" encoding="UTF-8"?>
<svg width="48px" height="48px" viewBox="0 0 48 48" version="1.1" xmlns="http://www.w3.org/2000/svg" xmlns:xlink="http://www.w3.org/1999/xlink">
    <g id="airtable" stroke="none" stroke-width="1" fill="none" fill-rule="evenodd">
        <g transform="translate(2.000000, 6.000000)" fill-rule="nonzero" id="Path">
            <path d="M19.6382192,0.452263303 L3.24163165,7.06196736 C2.32981243,7.42959022 2.33925876,8.69132614 3.25679547,9.04562933 L19.7219932,15.4066188 C21.1687728,15.9655606 22.7798689,15.9655606 24.2264,15.4066188 L40.6918463,9.04562933 C41.6091345,8.69132614 41.6188293,7.42959022 40.7067616,7.06196736 L24.3104226,0.452263303 C22.8144226,-0.150754434 21.1339707,-0.150754434 19.6382192,0.452263303" fill="#FFBF00"></path>
            <path d="M23.4349966,18.8802189 L23.4349966,34.7708262 C23.4349966,35.5266568 24.2173016,36.0441866 24.9384542,35.7656844 L43.2857085,28.827832 C43.7045785,28.6660586 43.9792677,28.2717964 43.9792677,27.8329739 L43.9792677,11.9423667 C43.9792677,11.186536 43.1969627,10.6690063 42.4758101,10.9475085 L24.1285559,17.8853608 C23.7099345,18.0471342 23.4349966,18.4413965 23.4349966,18.8802189" fill="#26B5F8"></path>
            <path d="M19.1507888,19.7001293 L13.7057265,22.2613806 L13.1528678,22.5217196 L1.65867571,27.8871244 C0.930065538,28.2295609 9.94350282e-05,27.7122734 9.94350282e-05,26.923749 L9.94350282e-05,12.0091103 C9.94350282e-05,11.7238273 0.150246328,11.4775345 0.351602261,11.2920278 C0.435624858,11.2099302 0.530833899,11.1423632 0.629771751,11.0888423 C0.904461016,10.9282798 1.29623503,10.8854147 1.62934237,11.0137678 L19.0593085,17.7416536 C19.9452746,18.0840903 20.0148792,19.2935162 19.1507888,19.7001293" fill="#ED3049"></path>
            <path d="M19.1507888,19.7001293 L13.7057265,22.2613806 L0.351602261,11.2920278 C0.435624858,11.2099302 0.530833899,11.1423632 0.629771751,11.0888423 C0.904461016,10.9282798 1.29623503,10.8854147 1.62934237,11.0137678 L19.0593085,17.7416536 C19.9452746,18.0840903 20.0148792,19.2935162 19.1507888,19.7001293" fill-opacity="0.25" fill="#000000"></path>
        </g>
    </g>
</svg>
