<?xml version="1.0" encoding="UTF-8"?>
<svg width="48px" height="48px" viewBox="0 0 48 48" version="1.1" xmlns="http://www.w3.org/2000/svg" xmlns:xlink="http://www.w3.org/1999/xlink">
    <!-- Generator: Sketch 55.2 (78181) - https://sketchapp.com -->
    <title>amo</title>
    <desc>Created with Sketch.</desc>
    <g id="amo" stroke="none" stroke-width="1" fill="none" fill-rule="evenodd">
        <g id="amocrm_2" transform="translate(4.000000, 7.000000)" fill="#329DC7" fill-rule="nonzero">
            <g id="Group-13-Copy">
                <g id="amoCRM">
                    <path d="M9.72489354,21.1251404 C9.72489354,24.4694383 10.9755002,26.139417 13.4767137,26.139417 C16.1523539,26.0970979 18.3694383,24.6853744 20.1246758,21.9075021 C20.7390089,20.9536937 21.2436398,19.7817788 21.6385682,18.3906723 C21.6385682,13.5304809 22.0773776,9.36475744 22.9549963,5.89024678 C19.4006403,6.5858 16.3070342,8.27856599 13.6741779,10.9685447 C11.0413217,13.6606937 9.72489354,17.0473107 9.72489354,21.1251404 M40.7925977,17.2187574 C41.5824546,17.2187574 41.9773831,18.2192255 41.9773831,20.2136511 C41.9773831,21.2987574 41.5166331,22.6128212 40.5951335,24.1536723 C39.6736338,25.6945234 38.4778782,27.1062468 37.0078668,28.3855872 C35.5378553,29.6660128 33.9032904,30.7196511 32.1041719,31.5443319 C30.3050535,32.3679277 28.5498159,32.779183 26.8384594,32.779183 C24.5116726,32.779183 22.9549963,30.7619702 22.1651395,26.7242893 C21.023138,28.5917574 19.5322832,30.1217574 17.6892838,31.3153744 C15.8462844,32.5100766 13.3779816,33.1058 10.2843755,33.1058 C7.19076933,33.1058 4.69942907,32.1519915 2.81364576,30.240034 C0.926765417,28.3313319 0.00526571257,26.0081191 0.0491466507,23.2736511 C0.0491466507,15.8970979 2.52732263,10.0809277 7.48696567,5.82514044 C9.59325072,4.0466511 11.5569227,2.87473621 13.3779816,2.31048088 C15.1990405,1.74622555 17.1188316,1.46301277 19.1373547,1.46301277 C21.1547808,1.46301277 22.800316,1.81133189 24.0739603,2.50471489 C24.6882934,1.24707656 25.3903884,0.61771489 26.1802453,0.61771489 C27.7160782,0.61771489 29.1751193,1.27854467 30.5573688,2.60345956 C31.9396184,3.92837445 32.6307432,5.17407656 32.6307432,6.34599145 C32.0153131,7.779417 31.1168509,9.49388511 29.9320655,11.4904809 C29.581018,13.4859915 29.4054942,16.2866511 29.4054942,19.8892042 C29.4054942,23.4928426 29.8662441,25.2919489 30.7877438,25.2919489 C31.9286482,25.2919489 34.6931473,23.0370979 39.0812411,18.5230553 C39.871098,17.6538851 40.4404532,17.2187574 40.7925977,17.2187574" id="Fill-2"></path>
                </g>
            </g>
        </g>
    </g>
</svg>