<?xml version="1.0" encoding="UTF-8"?>
<svg width="48px" height="48px" viewBox="0 0 48 48" version="1.1" xmlns="http://www.w3.org/2000/svg" xmlns:xlink="http://www.w3.org/1999/xlink">
    <!-- Generator: Sketch 55.2 (78181) - https://sketchapp.com -->
    <title>asana</title>
    <desc>Created with Sketch.</desc>
    <defs>
        <radialGradient cx="0%" cy="54.652%" fx="0%" fy="54.652%" r="73.5918768%" gradientTransform="translate(0.000000,0.546520),scale(0.900412,1.000000),translate(-0.000000,-0.546520)" id="radialGradient-1">
            <stop stop-color="#FFB900" offset="0%"></stop>
            <stop stop-color="#F95D8F" offset="60%"></stop>
            <stop stop-color="#F95353" offset="99.91%"></stop>
        </radialGradient>
    </defs>
    <g id="asana" stroke="none" stroke-width="1" fill="none" fill-rule="evenodd">
        <g id="Asana" transform="translate(4.000000, 6.000000)" fill="url(#radialGradient-1)" fill-rule="nonzero">
            <path d="M31.2824557,19.0495388 C26.4818149,19.0495388 22.590843,22.8398974 22.590843,27.5155982 C22.590843,32.1917012 26.4818149,35.9828643 31.2824557,35.9828643 C36.0822707,35.9828643 39.9732426,32.1917012 39.9732426,27.5155982 C39.9732426,22.8398974 36.0822707,19.0495388 31.2824557,19.0495388 Z M8.70177061,19.049941 C3.9019556,19.0503432 0.0105708245,22.8398974 0.0105708245,27.5160004 C0.0105708245,32.1917012 3.9019556,35.9824621 8.70177061,35.9824621 C13.5019985,35.9824621 17.3933833,32.1917012 17.3933833,27.5160004 C17.3933833,22.8398974 13.5019985,19.049941 8.70135769,19.049941 L8.70177061,19.049941 Z M28.6831065,8.46646167 C28.6831065,13.1421625 24.7921346,16.9337278 19.9923196,16.9337278 C15.1916788,16.9337278 11.3007069,13.1421625 11.3007069,8.46646167 C11.3007069,3.79076087 15.1916788,0 19.9923196,0 C24.7921346,0 28.6826936,3.79076087 28.6826936,8.46646167 L28.6831065,8.46646167 Z" id="Shape"></path>
        </g>
    </g>
</svg>