<?xml version="1.0" encoding="UTF-8"?>
<svg width="48px" height="48px" viewBox="0 0 48 48" version="1.1" xmlns="http://www.w3.org/2000/svg" xmlns:xlink="http://www.w3.org/1999/xlink">
    <!-- Generator: Sketch 55.2 (78181) - https://sketchapp.com -->
    <title>axure</title>
    <desc>Created with Sketch.</desc>
    <defs>
        <linearGradient x1="-0.0124927521%" y1="50.0005033%" x2="100%" y2="50.0005033%" id="linearGradient-1">
            <stop stop-color="#6764AD" offset="0%"></stop>
            <stop stop-color="#5F69B1" offset="4%"></stop>
            <stop stop-color="#407BBF" offset="21%"></stop>
            <stop stop-color="#2789CA" offset="38%"></stop>
            <stop stop-color="#1693D2" offset="57%"></stop>
            <stop stop-color="#0B99D6" offset="76%"></stop>
            <stop stop-color="#089BD8" offset="100%"></stop>
        </linearGradient>
    </defs>
    <g id="axure" stroke="none" stroke-width="1" fill="none" fill-rule="evenodd">
        <g id="axure_icon_125" transform="translate(6.000000, 4.000000)" fill-rule="nonzero">
            <g id="Asset-1" transform="translate(0.000000, 0.120482)">
                <path d="M33.0473685,1.0616492 L33.0473685,1.0616492 C32.711219,0.394800559 32.0099622,-0.0135726892 31.2578948,0.0195587542 L28.1368422,0.0195587542 C27.2289473,0.0195587542 26.5578948,0.381685183 26.1947369,1.03299171 L21.5789474,7.74144892 L25.6184211,13.2410812 L32.6894738,3.17188234 C33.4657896,2.23660617 33.1973685,1.38990768 33.0473685,1.0616492 Z" id="Path" fill="#75BB43"></path>
                <path d="M8.65263158,0.957440149 L8.65263158,0.957440149 C8.2002978,0.339393836 7.46498548,-0.0128394843 6.69473685,0.0195587542 L3.64210527,0.0195587542 C2.91630038,-0.0116243807 2.23527948,0.366856773 1.88421053,0.996518542 C1.53947369,1.63219371 1.62105263,2.39813019 2.08947368,3.10675169 L13.4052632,18.665162 L0.394736842,36.6698795 C-0.0550358093,37.2696993 -0.123319471,38.0697993 0.218421053,38.7358239 C0.57040043,39.3645899 1.25080914,39.7427308 1.97631579,39.7127836 L5.09999999,39.7127836 C5.87146058,39.7254164 6.58701094,39.3156154 6.96052632,38.647246 L21.5210526,18.7381083 L8.65263158,0.957440149 Z" id="Path" fill="url(#linearGradient-1)"></path>
                <path d="M34.6000001,36.826193 L25.5263157,24.4670005 L21.5342105,29.9379752 L28.7105262,39.4444453 L28.8973684,39.5252072 C29.1820161,39.6525583 29.4902827,39.7199817 29.8026315,39.7232046 L32.8552632,39.7232046 C33.5472752,39.7466561 34.2004629,39.4069935 34.5736842,38.829612 C34.9406745,38.2136692 34.9506877,37.4513749 34.6000001,36.826193 L34.6000001,36.826193 Z" id="Path" fill="#EB2385"></path>
            </g>
        </g>
    </g>
</svg>