<?xml version="1.0" encoding="UTF-8"?>
<svg width="48px" height="48px" viewBox="0 0 48 48" version="1.1" xmlns="http://www.w3.org/2000/svg" xmlns:xlink="http://www.w3.org/1999/xlink">
    <!-- Generator: Sketch 55.2 (78181) - https://sketchapp.com -->
    <title>basecamp copy</title>
    <desc>Created with Sketch.</desc>
    <g id="basecamp-copy" stroke="none" stroke-width="1" fill="none" fill-rule="evenodd">
        <g id="Basecamp-(1)" transform="translate(2.000000, 6.000000)" fill-rule="nonzero">
            <path d="M21.9987585,0 C10.1633853,0 0.890963583,14.7889948 0.0136561998,27.279963 C3.72772873,33.6106282 12.6840922,35.9902795 21.9991034,35.9902795 C31.3134248,35.9902795 40.2703056,33.6106282 43.9824814,27.2797936 C43.1050016,14.7889948 33.8337869,0 21.998931,0" id="Path" fill="#B6DEFF"></path>
            <path d="M40.889835,24.304552 C40.889835,24.304552 38.2758452,18.7540643 35.6189212,15.5158282 C32.9601004,12.2762374 29.713132,8.74875813 27.7933324,8.74875813 C25.8745674,8.74875813 20.5107155,18.0760025 18.0500132,18.0760025 C15.5887935,18.0760025 14.3097318,13.8477691 11.2838145,13.8477691 C8.25669016,13.8477691 3.44736281,24.0439284 3.44736281,24.0439284 L3.12147622,25.772444 C3.12147622,25.772444 4.79229158,33.0477217 22.2718825,33.0477217 C39.7521632,33.0477217 41.1491648,25.891833 41.1491648,25.891833 L40.8900074,24.3043827" id="Path" fill="#66CC66"></path>
            <path d="M18.3238269,22.0564826 C15.6091399,22.0564826 14.2174834,19.4258603 13.4629439,17.8020005 C12.7844446,16.3391889 12.667022,14.0296469 10.7418771,13.9649566 C10.9310293,13.8912911 11.113112,13.8477691 11.2838145,13.8477691 C14.3097318,13.8477691 15.5887935,18.0760025 18.0500132,18.0760025 C20.5107155,18.0760025 25.8745674,8.74858878 27.7933324,8.74858878 C28.1549113,8.74858878 28.5621834,8.8739049 29.0041132,9.09676436 C28.677192,9.05442784 28.2580225,9.08389406 27.9350672,9.40209538 C27.3148481,10.0114026 21.684597,22.0564826 18.3238269,22.0564826" id="Path" fill="#17AD49"></path>
        </g>
    </g>
</svg>