<?xml version="1.0" encoding="UTF-8"?>
<svg width="48px" height="48px" viewBox="0 0 48 48" version="1.1" xmlns="http://www.w3.org/2000/svg" xmlns:xlink="http://www.w3.org/1999/xlink">
    <!-- Generator: Sketch 55.2 (78181) - https://sketchapp.com -->
    <title>evernote</title>
    <desc>Created with Sketch.</desc>
    <g id="evernote" stroke="none" stroke-width="1" fill="none" fill-rule="evenodd">
        <g id="evernote-icon" transform="translate(5.000000, 3.000000)">
            <path d="M27.3562105,17.3750294 C25.6329474,17.3160441 25.1469474,18.7307647 25.0007368,19.8826765 C25.5468299,19.7978401 26.1000669,19.7651567 26.6526316,19.7850882 C27.738,19.8221471 28.7330526,20.0463529 29.5370526,20.39625 C29.5304211,19.2026471 29.2638947,17.4395735 27.3562105,17.3750294 L27.3562105,17.3750294 Z" id="Path"></path>
            <path d="M3.57410526,8.10136765 L7.59126316,8.10136765 C7.82026767,8.10085892 8.0058319,7.91952602 8.00652632,7.69557353 C8.00652632,7.69402941 7.95789474,4.32877941 7.95789474,3.39397059 L7.95789474,3.38254412 C7.95789474,2.6145 8.12242105,1.94466176 8.41042105,1.38260294 L8.54715789,1.13091176 C8.52964214,1.1341083 8.51361215,1.14264923 8.50136842,1.15530882 L0.701368421,8.71932353 C0.687078142,8.7308634 0.676904904,8.74654362 0.672315789,8.76410294 C0.833684211,8.68597059 1.05442105,8.57880882 1.08536842,8.56552941 C1.764,8.26535294 2.58789474,8.10136765 3.57410526,8.10136765 L3.57410526,8.10136765 Z" id="Path" fill="#74BB44" fill-rule="nonzero"></path>
            <path d="M34.8094737,7.27773529 C34.4905263,5.60885294 33.4752632,4.78614706 32.5575789,4.4625 C31.5682105,4.11260294 29.5604211,3.75004412 27.0391579,3.45975 C25.0098947,3.22566176 22.6247368,3.24480882 21.1841053,3.28773529 C21.0113684,2.12964706 20.1808421,1.07161765 19.2511579,0.705352941 C16.776,-0.268676471 12.9489474,-0.0333529412 11.9674737,0.235632353 C11.1865263,0.449338235 10.3225263,0.886323529 9.84221053,1.55986765 C9.51978947,2.01044118 9.31073684,2.58670588 9.30915789,3.39242647 C9.30915789,3.84825 9.32210526,4.92202941 9.33410526,5.87660294 C9.34547368,6.83333824 9.35905263,7.68970588 9.35905263,7.69588235 C9.35783429,8.54978654 8.65011297,9.24162007 7.77694737,9.24247059 L3.762,9.24247059 C2.90589474,9.24247059 2.25126316,9.38298529 1.75136842,9.60502941 C1.25084211,9.82738235 0.896210526,10.1269412 0.626842105,10.4814706 C0.0909473684,11.1849706 -0.00221052632,12.0536912 -3.79037324e-05,12.9406324 C-3.79037324e-05,12.9406324 0.00757894737,13.6648235 0.186,15.0671912 C0.334736842,16.1517794 1.53789474,23.7309265 2.68073684,26.0359853 C3.12378947,26.9321912 3.41936842,27.3067941 4.28936842,27.7020882 C6.22894737,28.5142941 10.6588421,29.4179118 12.7357895,29.6767059 C14.808,29.9361176 16.1090526,30.4808824 16.884,28.8913676 C16.8865263,28.8864265 17.0396842,28.4966912 17.2493684,27.9204265 C17.9226316,25.9266618 18.0164211,24.1567941 18.0164211,22.8767206 C18.0164211,22.7460882 18.2118947,22.7405294 18.2118947,22.8767206 C18.2118947,23.7809559 18.0347368,26.9803676 20.5064211,27.8379706 C21.4825263,28.1758235 23.5057895,28.4778529 25.5631579,28.7137941 C27.4222105,28.9234853 28.7712632,29.6381029 28.7712632,34.3041176 C28.7712632,37.1422059 28.1617895,37.5310147 24.9751579,37.5310147 C22.3916842,37.5310147 21.4067368,37.5961765 21.4067368,35.5903676 C21.4067368,33.9675 23.0475789,34.1379706 24.2633684,34.1379706 C24.8068421,34.1379706 24.4121053,33.7432941 24.4121053,32.7417794 C24.4121053,31.7452059 25.05,31.1698676 24.4468421,31.1556618 C20.2427368,31.0420147 17.7685263,31.1507206 17.7685263,36.2935588 C17.7685263,40.9614265 19.5950526,41.8282941 25.5631579,41.8282941 C30.2415789,41.8282941 31.8896842,41.6788235 33.822,35.8167353 C34.2044211,34.6595735 35.1296842,31.1284853 35.6883158,25.1984559 C36.0416842,21.4499559 35.3542105,10.1334265 34.8094737,7.27773529 L34.8094737,7.27773529 Z M26.6532632,19.7850882 C26.0753684,19.7656324 25.5195789,19.8011471 25.0013684,19.8826765 C25.1475789,18.7307647 25.6335789,17.3157353 27.3568421,17.3750294 C29.2645263,17.4395735 29.5310526,19.2026471 29.5376842,20.39625 C28.7336842,20.0460441 27.738,19.8224559 26.6532632,19.7850882 L26.6532632,19.7850882 Z" id="Shape" fill="#74BB44" fill-rule="nonzero"></path>
        </g>
    </g>
</svg>