<?xml version="1.0" encoding="UTF-8"?>
<svg width="48px" height="48px" viewBox="0 0 48 48" version="1.1" xmlns="http://www.w3.org/2000/svg" xmlns:xlink="http://www.w3.org/1999/xlink">
    <!-- Generator: Sketch 55.2 (78181) - https://sketchapp.com -->
    <title>freshdesk</title>
    <desc>Created with Sketch.</desc>
    <g id="freshdesk" stroke="none" stroke-width="1" fill="none" fill-rule="evenodd">
        <g id="freshdesk-icon" transform="translate(3.000000, 3.000000)" fill-rule="nonzero">
            <path d="M20.934375,-0.000170010572 L36.708,-0.000170010572 C38.1159928,-0.0113233443 39.4695226,0.543402099 40.4646006,1.53959065 C41.4596786,2.53577921 42.0128939,3.889927 42.0002204,5.29790625 L42.0002204,21.065625 C42.0002204,32.6300625 32.6300625,42.0000081 21.065625,42.0000081 L20.9461875,42.0000081 C15.3924898,42.0048763 10.0645975,39.8020508 6.13587736,35.8766541 C2.20715722,31.9512573 0,26.6252311 0,21.0715313 C0,9.47428125 9.3541875,0.1194375 20.934375,-0.000170010572 Z" id="Path" fill="#25C16F"></path>
            <path d="M20.934375,9.35484375 C15.6233438,9.35484375 11.3176875,13.6598438 11.3176875,18.9715313 L11.3176875,25.5104063 C11.35575,27.260625 12.765375,28.67025 14.5155938,28.7083125 L17.23575,28.7083125 L17.23575,21.196875 L13.56075,21.196875 L13.56075,19.096875 C13.783875,15.1423125 17.0565938,12.04875 21.018375,12.04875 C24.9801563,12.04875 28.245,15.1364063 28.468125,19.096875 L28.468125,21.196875 L24.740625,21.196875 L24.740625,28.7135625 L27.1982813,28.7135625 L27.1982813,28.833 C27.1720313,30.4565625 25.8628125,31.7664375 24.2451563,31.786125 L21.30975,31.786125 C21.070875,31.786125 20.808375,31.9055625 20.808375,32.1437813 C20.8203534,32.4155669 21.0379644,32.6331779 21.30975,32.6451563 L24.262875,32.6451563 C26.3661563,32.6320313 28.0678125,30.930375 28.0809375,28.8270938 L28.0809375,28.5882188 C29.5285588,28.2621347 30.5522978,26.9699546 30.5385938,25.486125 L30.5385938,19.096875 C30.6580313,13.6801875 26.3622188,9.36075 20.9219063,9.36075 L20.934375,9.35484375 Z" id="Path" fill="#FFFFFF"></path>
        </g>
    </g>
</svg>