<?xml version="1.0" encoding="UTF-8"?>
<svg width="48px" height="48px" viewBox="0 0 48 48" version="1.1" xmlns="http://www.w3.org/2000/svg" xmlns:xlink="http://www.w3.org/1999/xlink">
    <!-- Generator: Sketch 55.2 (78181) - https://sketchapp.com -->
    <title>github</title>
    <desc>Created with Sketch.</desc>
    <g id="github" stroke="none" stroke-width="1" fill="none" fill-rule="evenodd">
        <g id="GitHub-Mark" transform="translate(3.000000, 4.000000)" fill="#161514">
            <path d="M20.9980662,0 C9.40323521,0 0,9.41036203 0,21.0194429 C0,30.3059335 6.01657509,38.1833859 14.3613984,40.9627523 C15.4120753,41.1563015 15.7949599,40.5072666 15.7949599,39.9498449 C15.7949599,39.4517783 15.7769115,38.1291921 15.7665981,36.3756363 C9.92535069,37.6453191 8.69290033,33.55756 8.69290033,33.55756 C7.73762239,31.1291627 6.36078455,30.4827084 6.36078455,30.4827084 C4.4540962,29.1794772 6.50517204,29.2052837 6.50517204,29.2052837 C8.61297155,29.3536714 9.72166119,31.3717444 9.72166119,31.3717444 C11.594831,34.5833708 14.6372817,33.6556249 15.8336352,33.1175582 C16.0244329,31.7601331 16.5671752,30.8336776 17.1666411,30.3085141 C12.5036987,29.7781893 7.60096995,27.9743108 7.60096995,19.9200835 C7.60096995,17.6258803 8.41959544,15.7484531 9.76291476,14.2800599 C9.54633353,13.7484447 8.82568526,11.6103712 9.9691826,8.7174559 C9.9691826,8.7174559 11.7314835,8.15229224 15.743393,10.8723036 C17.41803,10.4052049 19.2151386,10.1729459 21.0006446,10.1639136 C22.7848614,10.1729459 24.5806808,10.4052049 26.2578962,10.8723036 C30.2672274,8.15229224 32.0269499,8.7174559 32.0269499,8.7174559 C33.1730256,11.6103712 32.4523773,13.7484447 32.2370852,14.2800599 C33.5829829,15.7484531 34.3951625,17.6258803 34.3951625,19.9200835 C34.3951625,27.9949561 29.4846987,29.7717377 24.8075754,30.2917399 C25.5604531,30.9407749 26.2321127,32.2233609 26.2321127,34.1846594 C26.2321127,36.9937035 26.2063292,39.2608097 26.2063292,39.9498449 C26.2063292,40.5124279 26.5853464,41.1666242 27.6502041,40.961462 C35.9885816,38.1756439 42,30.3033528 42,21.0194429 C42,9.41036203 32.5967648,0 20.9980662,0" id="Fill-4"></path>
        </g>
    </g>
</svg>