<?xml version="1.0" encoding="UTF-8"?>
<svg width="48px" height="48px" viewBox="0 0 48 48" version="1.1" xmlns="http://www.w3.org/2000/svg" xmlns:xlink="http://www.w3.org/1999/xlink">
    <!-- Generator: Sketch 55.2 (78181) - https://sketchapp.com -->
    <title>gmail</title>
    <desc>Created with Sketch.</desc>
    <g id="gmail" stroke="none" stroke-width="1" fill="none" fill-rule="evenodd">
        <g transform="translate(3.000000, 8.000000)" fill-rule="nonzero">
            <g id="Group" transform="translate(2.707031, 0.000000)" fill="#EBEBEB">
                <polygon id="Path" points="37.0759102 5.12718367 34.3947188 31.9197551 2.19121875 31.9197551 0.0310898437 5.64571429 18.2929688 15.8205714"></polygon>
                <polygon id="Path" points="36.1664297 0.080244898 18.2929688 16.7884898 0.419507812 0.080244898 18.2929688 0.080244898"></polygon>
            </g>
            <path d="M4.89825,7.79534694 L4.89825,31.9197551 L1.98015234,31.9197551 C0.886921875,31.9197551 0,31.0372245 0,29.9492245 L0,4.24220408 L3.19921875,4.32897959 L4.89825,7.79534694 Z" id="Path" fill="#F14336"></path>
            <path d="M42,4.24220408 L42,29.9493061 C42,31.0372245 41.1130781,31.9198367 40.0187813,31.9198367 L37.10175,31.9198367 L37.10175,7.79534694 L38.7171094,3.99738776 L42,4.24220408 Z" id="Path" fill="#D32E2A"></path>
            <path d="M42,2.05077551 L42,4.24220408 L37.10175,7.79534694 L21,19.4743673 L4.89825,7.79534694 L0,4.24220408 L0,2.05077551 C0,0.962857143 0.886921875,0.080244898 1.98015234,0.080244898 L3.12653906,0.080244898 L21,13.0442449 L38.8734609,0.080244898 L40.0187813,0.080244898 C41.1130781,0.080244898 42,0.96277551 42,2.05077551 Z" id="Path" fill="#F14336"></path>
            <polygon id="Path" fill="#D32E2A" points="4.89825 7.79534694 0 7.03959184 0 4.24220408"></polygon>
        </g>
    </g>
</svg>