<?xml version="1.0" encoding="UTF-8"?>
<svg width="48px" height="48px" viewBox="0 0 48 48" version="1.1" xmlns="http://www.w3.org/2000/svg" xmlns:xlink="http://www.w3.org/1999/xlink">
    <!-- Generator: Sketch 55.2 (78181) - https://sketchapp.com -->
    <title>hubspot</title>
    <desc>Created with Sketch.</desc>
    <g id="hubspot" stroke="none" stroke-width="1" fill="none" fill-rule="evenodd">
        <g id="hubspot-icon" transform="translate(3.000000, 2.000000)" fill="#F8761F" fill-rule="nonzero">
            <path d="M37.6167162,20.898993 L37.6100976,20.8956363 C38.5499364,22.5605737 39,24.3765639 39,26.3469637 L39,26.4476655 C39,28.4516326 38.444039,30.2743363 37.4280866,31.9191334 C36.4384513,33.5493556 35.0408997,34.8847112 33.3775138,35.7894416 C31.7592703,36.6789747 30.0351294,37.1153494 28.2084005,37.1153494 L27.9105643,37.1153494 C26.3508855,37.1131846 24.8084815,36.7840539 23.3801443,36.1486115 C22.685193,35.846506 22.0398812,35.4940494 21.4442087,35.0744583 L17.0891812,39.4919133 C17.1941979,39.8285143 17.2477677,40.1794453 17.2480272,40.5324992 C17.2513364,41.4522429 16.8873144,42.3283491 16.2486211,42.9829112 C15.6099279,43.6374733 14.7395842,44 13.8328384,44 C12.9260925,44 12.0623674,43.6374733 11.4170556,42.9829112 C10.7717437,42.3283491 10.4176496,41.4522429 10.4143403,40.5324992 C10.411031,39.6127556 10.7717437,38.7299359 11.4137463,38.0820873 C12.3568944,37.1254196 13.7567246,36.8132438 15.0043275,37.2831858 L19.2203649,32.9966433 C18.5221044,32.1238938 17.9595248,31.1571559 17.575647,30.0964297 C17.1204423,28.8545966 16.8851742,27.5409374 16.8806958,26.2160513 L16.8806958,25.8132438 C16.8806958,23.8596277 17.4995333,22.0704913 18.5121765,20.4424779 C19.0118795,19.6435764 19.6373356,18.93195 20.3091218,18.3075984 L7.61798897,9.02624352 L6.69138736,8.31461703 C6.02621977,8.7207812 5.25515486,8.96917913 4.42121341,8.96917913 C1.9789563,8.96917913 2.84217094e-14,6.96185536 2.84217094e-14,4.48458956 C2.84217094e-14,2.00732377 1.97564701,-1.42108547e-14 4.41790412,-1.42108547e-14 C6.86016122,-1.42108547e-14 8.83911752,2.00732377 8.83911752,4.48458956 C8.83911752,4.8974672 8.75307594,5.29020446 8.6537972,5.6695148 L22.8010182,16.5352457 C23.9078813,15.9725073 25.096751,15.5939598 26.3221044,15.4140983 L26.3221044,10.0836131 C24.8428511,9.44919133 23.9824353,8.04607873 23.9824353,6.40128166 C23.9897289,4.16334418 25.780355,2.3530546 27.986678,2.35306683 C29.0433417,2.35305343 30.0564399,2.78020221 30.8017484,3.5399743 C31.5470568,4.29974638 31.9631111,5.32948457 31.9578277,6.40128166 C31.9796731,8.00912634 31.0330369,9.46805393 29.5685193,10.0836131 L29.5685193,15.4443088 C31.0444633,15.6490693 32.3516334,16.122368 33.6157828,16.8675618 C35.2715808,17.8366266 36.6503745,19.2259304 37.6167162,20.898993 Z M32.2986848,30.1702777 L32.2622826,30.1769912 C33.2914722,29.0289899 33.8077217,27.7635032 33.8077217,26.3973146 L33.7845566,25.7696063 C33.6852528,24.7767394 33.3552204,23.8219165 32.8215528,22.9835215 C32.2825019,22.1474811 31.5421611,21.4646913 30.6705134,20.9996948 C29.8100976,20.5532499 28.8934238,20.3619164 27.9337293,20.3619164 L27.8344506,20.3619164 C26.7688587,20.3619164 25.8323292,20.6505951 24.9222741,21.2514495 C24.0122189,21.8523039 23.3271956,22.5740006 22.820874,23.5810192 C22.3476453,24.4705523 22.1590157,25.4137931 22.1590157,26.4073848 L22.1590157,26.7094904 C22.1590157,27.7198657 22.4899448,28.6731767 23.0988545,29.5459262 C23.6599062,30.4278095 24.4377568,31.1462398 25.3557913,31.6304547 C26.193042,32.0802563 27.0534578,32.3252975 27.93042,32.3252975 L28.2216377,32.3252975 C29.7571489,32.3252975 31.1172677,31.502899 32.2986848,30.1702777 Z" id="Combined-Shape"></path>
        </g>
    </g>
</svg>