<?xml version="1.0" encoding="UTF-8"?>
<svg width="48px" height="48px" viewBox="0 0 48 48" version="1.1" xmlns="http://www.w3.org/2000/svg" xmlns:xlink="http://www.w3.org/1999/xlink">
    <!-- Generator: Sketch 55.2 (78181) - https://sketchapp.com -->
    <title>invision</title>
    <desc>Created with Sketch.</desc>
    <g id="invision" stroke="none" stroke-width="1" fill="none" fill-rule="evenodd">
        <g id="invision_icon_pink" transform="translate(4.000000, 4.000000)" fill-rule="nonzero">
            <rect id="Rectangle" fill="#FF3366" x="0" y="0" width="40" height="40" rx="3.6256"></rect>
            <path d="M13.368,12.5856 C14.6865568,12.5618541 15.738939,11.4786677 15.7246443,10.1599746 C15.7103497,8.84128156 14.6347341,7.78116269 13.3159724,7.78598875 C11.9972108,7.79084786 10.9294097,8.85883749 10.9248,10.1776 C10.926892,10.8217158 11.186104,11.4383294 11.6448577,11.8904738 C12.1036115,12.3426181 12.7239217,12.5928551 13.368,12.5856 Z" id="Path" fill="#FFFFFF"></path>
            <path d="M8.3008,25.4784 C8.16235706,26.0718011 8.08991737,26.6786847 8.0848,27.288 C8.0848,29.408 9.2352,30.816 11.6784,30.816 C13.7056,30.816 15.3488,29.6128 16.5312,27.6688 L15.8096,30.568 L19.84,30.568 L22.1392,21.344 C22.7136,19.008 23.8272,17.7952 25.5168,17.7952 C26.8464,17.7952 27.6736,18.6224 27.6736,19.9872 C27.677758,20.425059 27.6151731,20.8609954 27.488,21.28 L26.3024,25.52 C26.1334251,26.1038928 26.0488352,26.7089532 26.0512,27.3168 C26.0512,29.3296 27.2368,30.8016 29.7168,30.8016 C31.8368,30.8016 33.5264,29.4368 34.4608,26.1616 L32.88,25.552 C32.0896,27.7424 31.4064,28.1392 30.8672,28.1392 C30.328,28.1392 30.04,27.7808 30.04,27.0624 C30.0549568,26.6832663 30.1151157,26.3072733 30.2192,25.9424 L31.3696,21.8112 C31.6274825,20.9646199 31.7606147,20.0849767 31.7648,19.2 C31.7648,16.1104 29.896,14.4976 27.632,14.4976 C25.512,14.4976 23.3552,16.4176 22.2784,18.4224 L23.0688,14.8096 L16.9248,14.8096 L16.0624,17.992 L18.9424,17.992 L17.1728,25.08 C15.7824,28.1696 13.2288,28.2208 12.9088,28.1488 C12.3824,28.0304 12.0464,27.8288 12.0464,27.1472 C12.0622129,26.5906927 12.1465827,26.0382583 12.2976,25.5024 L14.9856,14.8112 L8.16,14.8112 L7.296,17.992 L10.1344,17.992 L8.3008,25.4784 Z" id="Path" fill="#FFFFFF"></path>
        </g>
    </g>
</svg>