<?xml version="1.0" encoding="UTF-8"?>
<svg width="48px" height="48px" viewBox="0 0 48 48" version="1.1" xmlns="http://www.w3.org/2000/svg" xmlns:xlink="http://www.w3.org/1999/xlink">
    <!-- Generator: Sketch 55.2 (78181) - https://sketchapp.com -->
    <title>manychat</title>
    <desc>Created with Sketch.</desc>
    <g id="manychat" stroke="none" stroke-width="1" fill="none" fill-rule="evenodd">
        <g id="ManyChat_Color_Horizontal" transform="translate(3.000000, 4.000000)" fill="#0084FF" fill-rule="nonzero" stroke="#0084FF" stroke-width="0.5">
            <g id="Group">
                <g id="b-link" transform="translate(15.819060, 13.337063)">
                    <path d="M1.90918465,0.947412587 C1.91067911,1.1991388 1.81057771,1.44098926 1.63120341,1.61898973 C1.45182911,1.7969902 1.20811202,1.89632492 0.954442953,1.89484191 C0.700822604,1.89624988 0.457178368,1.79688202 0.277865307,1.61888977 C0.0985522454,1.44089752 -0.00151059412,1.19909002 -1.68582898e-05,0.947412587 C-0.00151059412,0.69573515 0.0985522454,0.453927656 0.277865307,0.275935403 C0.457178368,0.0979431499 0.700822604,-0.00142470654 0.954442953,-1.51115441e-05 C1.47507383,-1.51115441e-05 1.90918465,0.430769231 1.90918465,0.947412587 L1.90918465,0.947412587 Z" id="b"></path>
                </g>
                <g id="c-link" transform="translate(23.672215, 13.337063)">
                    <path d="M1.90918465,0.947412587 C1.91067911,0.695686377 1.81057771,0.453835914 1.63120341,0.275835444 C1.45182911,0.0978349741 1.20811202,-0.00149974933 0.954442953,-1.6738884e-05 C0.43409396,-1.6738884e-05 -1.68582898e-05,0.430769231 -1.68582898e-05,0.947412587 C-0.00151059412,1.19909002 0.0985522454,1.44089752 0.277865307,1.61888977 C0.457178368,1.79688202 0.700822604,1.89624988 0.954442953,1.89484191 C1.20811202,1.89632492 1.45182911,1.7969902 1.63120341,1.61898973 C1.81057771,1.44098926 1.91067911,1.1991388 1.90918465,0.947412587 L1.90918465,0.947412587 Z" id="c"></path>
                </g>
                <g id="d-link" transform="translate(0.036644, 0.050350)">
                    <path d="M32.7901611,35.0548252 C35.1331409,35.0548252 37.4975436,34.172028 39.3198926,32.427972 L39.3415973,32.4064336 L39.4067114,32.3418182 C41.554349,30.0808392 42.2052081,26.7865734 41.0337181,23.900979 C40.4045638,22.3507692 39.1896644,21.1233566 37.6277718,20.4556643 C36.0658792,19.7882517 34.330349,19.7882517 32.7684564,20.4125874 C30.1650201,21.4464336 28.9067114,24.3963636 29.948255,26.9801399 C30.1650201,27.5183217 30.7941745,27.7983217 31.3582148,27.5829371 C31.9005503,27.3675524 32.1827114,26.7432168 31.9656644,26.1834965 C31.3582148,24.6976224 32.0958926,22.9966434 33.5926711,22.3938462 C35.7403087,21.5323077 38.1701074,22.5658741 39.0380134,24.6976224 C39.8839329,26.7647552 39.4284161,29.1765035 37.8665235,30.8128671 L37.8448188,30.8344056 C35.0029128,33.5904895 30.4471812,33.5474126 27.6703893,30.7267133 C25.2188859,28.2290909 24.9367248,24.2455944 27.0412349,21.467972 C27.1060671,21.4030769 27.3448188,21.1015385 27.5835705,20.8648951 C28.7767651,19.5297902 29.9699597,18.1734266 30.4905906,17.2906294 C31.6837852,15.245035 32.3560671,12.940979 32.3560671,10.8307692 C32.3560671,9.40979021 32.0741879,8.03160839 31.5101477,6.73958042 C31.6837852,5.94293706 32.2695302,3.7034965 32.8118658,1.70097902 C32.9176557,1.34174697 32.8178271,0.95385315 32.5514094,0.688951049 C32.2912349,0.409230769 31.9005503,0.301538462 31.5318523,0.387692308 C29.5141611,0.818461538 27.2797047,1.27048951 26.4771946,1.39972028 C24.7416644,0.473846154 22.7673826,0 20.7716779,0 C14.3718926,0 9.18700671,4.86629371 9.18700671,10.8523077 C9.18700671,12.9625175 9.85957047,15.2662937 11.0527651,17.3121678 C11.5516913,18.1734266 12.7448859,19.5297902 13.9380805,20.8648951 C14.1765503,21.1233566 14.4370067,21.4033566 14.4804161,21.4895105 C16.606349,24.3314685 16.3458926,28.2075524 13.8512617,30.7482517 C12.5061342,32.1048951 10.7054899,32.88 8.79660403,32.9015385 C6.88743624,32.9230769 5.08707383,32.2125874 3.71995973,30.899021 L3.69853691,30.8774825 C2.15806711,29.2411189 1.70283221,26.8293706 2.5484698,24.7406993 C2.96085906,23.7071329 3.76336913,22.9104895 4.80491275,22.48 C5.8244698,22.0492308 6.97425503,22.0276923 8.01551678,22.4581818 C9.5122953,23.0612587 10.2499732,24.7622378 9.64252349,26.2481119 C9.42547651,26.8078322 9.68593289,27.4321678 10.2499732,27.6475524 C10.8140134,27.8629371 11.4431678,27.6044755 11.6602148,27.0447552 C12.7014765,24.460979 11.4431678,21.5107692 8.84001342,20.4774825 C7.27783893,19.8528671 5.5425906,19.8528671 3.98041611,20.5202797 C2.41852349,21.187972 1.20390604,22.3938462 0.574469799,23.9655944 C-0.575315436,26.8078322 0.0321342282,30.1023776 2.1149396,32.3418182 L2.13636242,32.3633566 L2.20147651,32.427972 C3.98041611,34.172028 6.34510067,35.0979021 8.83973154,35.0763636 C11.3346443,35.0548252 13.6776242,34.0643357 15.4131544,32.2772028 C16.975047,30.6836364 17.9297718,28.594965 18.06,26.3555245 C18.1884398,24.1621601 17.5441913,21.9927439 16.237651,20.219021 C16.1508322,20.0897902 15.9771946,19.8959441 15.5865101,19.4651748 C14.8274094,18.6039161 13.395745,17.0106294 12.961651,16.2567832 C11.942094,14.5342657 11.3780537,12.6179021 11.3780537,10.8738462 C11.3780537,6.07216783 15.6084966,2.17454545 20.8150872,2.17454545 C22.5723221,2.17454545 24.2861477,2.62685315 25.7612215,3.46685315 C25.9348591,3.57426573 26.1299195,3.61734266 26.3469664,3.61734266 C26.8024832,3.5958042 28.711651,3.22993007 30.316953,2.88531469 C29.8831409,4.50041958 29.3842148,6.41678322 29.3408054,6.8041958 C29.3191007,6.99804196 29.3625101,7.19188811 29.449047,7.3641958 C29.9699597,8.4620979 30.2518389,9.64671329 30.2518389,10.8738462 C30.2518389,12.6179021 29.6877987,14.5342657 28.6682416,16.2570629 C28.2344295,17.0106294 26.7807785,18.6254545 26.021396,19.4654545 C25.6309933,19.8962238 25.4576376,20.0897902 25.3708188,20.219021 C24.0483954,21.9859567 23.3954999,24.1587124 23.5267651,26.3558042 C23.6569933,28.5734266 24.6114362,30.6836364 26.1736107,32.2772028 C27.9305638,34.1074126 30.3603624,35.0548252 32.7901611,35.0548252 L32.7901611,35.0548252 Z" id="d"></path>
                </g>
                <g id="e-link" transform="translate(18.446174, 17.966434)">
                    <path d="M2.47320805,1.27048951 C3.90515436,1.27048951 4.49061745,0.71048951 4.49061745,0.387692308 C4.49061745,0.0643356643 4.23044295,0 3.90487248,0 L0.585744966,0 C0.260456376,0 0,0.0643356643 0,0.387692308 C0,0.71048951 0.629154362,1.27048951 2.03911409,1.27048951 L2.47320805,1.27048951 Z" id="e"></path>
                </g>
                <g id="f-link" transform="translate(9.724832, 29.227972)">
                    <path d="M20.8694899,10.5938462 C21.4552349,10.5938462 21.9542179,10.1202797 21.9542179,9.51748252 C21.9571286,9.23106938 21.8438226,8.95552077 21.6397771,8.75293278 C21.4357316,8.55034479 21.1581151,8.43776344 20.8694899,8.44055944 C19.0474228,8.44055944 16.8126846,7.5793007 15.0557315,6.22293706 C13.9493557,5.3613986 12.0835973,3.53118881 12.0835973,1.07664336 C12.0835973,0.495104895 11.6063758,0 10.9989262,0 L10.9555168,0 C10.3697718,0 9.87084564,0.473846154 9.87084564,1.07664336 C9.87084564,3.53118881 8.00480537,5.36167832 6.89871141,6.22293706 C5.14147651,7.60083916 2.90702013,8.44055944 1.08467114,8.44055944 C0.498926174,8.44055944 -5.12000302e-05,8.91468531 -5.12000302e-05,9.51776224 C-0.00281509395,9.80407887 0.110558226,10.0794823 0.314586956,10.2819483 C0.518615685,10.4844144 0.796144678,10.5969194 1.08467114,10.5941767 C3.40594631,10.5941767 6.07421477,9.5820979 8.24383893,7.90265734 C9.41504698,6.97678322 10.3480671,5.94321678 10.9772215,4.84531469 C11.6280805,5.94321678 12.5391141,6.99832168 13.710604,7.90265734 C15.8799463,9.5820979 18.5482148,10.5941767 20.8694899,10.5941767 L20.8694899,10.5938462 Z" id="f"></path>
                </g>
            </g>
        </g>
    </g>
</svg>