<?xml version="1.0" encoding="UTF-8"?>
<svg width="48px" height="48px" viewBox="0 0 48 48" version="1.1" xmlns="http://www.w3.org/2000/svg" xmlns:xlink="http://www.w3.org/1999/xlink">
    <!-- Generator: Sketch 55.2 (78181) - https://sketchapp.com -->
    <title>marvel</title>
    <desc>Created with Sketch.</desc>
    <g id="marvel" stroke="none" stroke-width="1" fill="none" fill-rule="evenodd">
        <g id="Marvelapp" transform="translate(4.000000, 9.000000)" fill="#00B8FF" fill-rule="nonzero">
            <path d="M33.4908,2.51142857 C35.2065,2.51142857 36.8382,4.01785714 36.8382,5.72785714 C36.8382,8.92714286 28.6188,16.8921429 28.6188,20.7064286 C28.6188,21.3857143 28.9485,21.7242857 29.6079,21.7242857 C31.9809,21.7242857 36.1011,15.6621429 37.4493,13.6457143 C39.1692,11.07 40.5699,11.0635714 41.4813,12 C42.6888,13.2471429 41.517,15.7457143 40.6833,17.2928571 C38.1003,22.0821429 32.0208,29.2521429 26.7162,29.2521429 C25.2945,29.2521429 24.1269,28.7678571 23.2155,27.8014286 C19.8387,24.2314286 23.1126,17.8757143 25.8048,13.725 C20.0907,18.255 17.7534,25.0092857 15.7563,27.1735714 C14.1393,28.92 10.8255,27.8228571 11.0355,24.8592857 C11.1594,23.1171429 11.6655,21.3235714 13.5051,18.03 C14.2821,16.4785714 15.3279,14.3185714 15.9831,13.1785714 C7.3395,20.2992857 6.6297,27.0492857 4.5297,29.2135714 C2.8833,30.9107143 0,29.7835714 0,26.5864286 C0,21.1371429 7.5537,3.86571429 11.7978,0.589285714 C13.5765,-0.786428571 15.9075,0.417857143 15.9075,2.43214286 C15.9075,4.04785714 13.1901,8.11071429 11.2644,12.0792857 C15.3468,7.03285714 18.2784,3.67071429 20.5884,2.43428571 C23.1105,1.09071429 25.0404,2.54357143 25.0404,4.47214286 C25.0404,6.37928571 23.3079,8.86071429 21.2373,12.8635714 C24.234,9.51642857 30.5403,2.51357143 33.4908,2.51357143" id="marvelapp-[#151]"></path>
        </g>
    </g>
</svg>