<?xml version="1.0" encoding="UTF-8"?>
<svg width="48px" height="48px" viewBox="0 0 48 48" version="1.1" xmlns="http://www.w3.org/2000/svg" xmlns:xlink="http://www.w3.org/1999/xlink">
    <!-- Generator: Sketch 55.2 (78181) - https://sketchapp.com -->
    <title>ms teams</title>
    <desc>Created with Sketch.</desc>
    <g id="ms-teams" stroke="none" stroke-width="1" fill="none" fill-rule="evenodd">
        <g id="Microsoft_Office_Teams_(2018–present)" transform="translate(2.000000, 2.000000)">
            <circle id="Head" fill="#7B83EB" fill-rule="nonzero" cx="23.3750138" cy="8.25001375" r="6.4166575"></circle>
            <path d="M22.9166163,9.625 L17.1065125,9.625 C17.115835,9.66779917 17.1255975,9.71054333 17.1358,9.7532325 L17.1383988,9.76397125 C17.1478038,9.803255 17.1577863,9.8424425 17.167865,9.8815475 C18.0451595,13.2086352 21.3885911,15.2533121 24.75,14.518405 L24.75,11.4583013 C24.7470096,10.447006 23.9279116,9.62794492 22.9166163,9.625 L22.9166163,9.625 Z" id="Path" fill="#000000" fill-rule="nonzero" opacity="0.1"></path>
            <path d="M21.5416163,11 L17.5762263,11 C18.63872,13.2396221 20.8961293,14.667002 23.375,14.6666163 L23.375,12.8333013 C23.3720096,11.822006 22.5529116,11.0029449 21.5416163,11 L21.5416163,11 Z" id="Path" fill="#000000" fill-rule="nonzero" opacity="0.2"></path>
            <circle id="Head-2" fill="#5059C9" fill-rule="nonzero" cx="37.8125" cy="10.3125137" r="4.8125"></circle>
            <path d="M41.93717,16.5 L31.1283775,16.5 C30.6430807,16.5 30.24967,16.8934107 30.24967,17.3787075 L30.24967,28.530315 C30.1879508,31.8563613 32.4622152,34.7718881 35.70325,35.5216125 C37.7318816,35.9474055 39.8443751,35.4362328 41.4539194,34.1300885 C43.0634637,32.8239443 43.9986184,30.8619524 43.999615,28.7891175 L43.999615,18.5625 C43.999615,17.4234342 43.0762358,16.5 41.93717,16.5 L41.93717,16.5 Z" id="Path" fill="#5059C9" fill-rule="nonzero"></path>
            <path d="M34.3749982,18.5625 L34.3749982,31.625 C34.3782622,36.6025357 31.0365351,40.9611357 26.2287809,42.2500779 C21.4210267,43.53902 16.347128,41.4366199 13.86,37.125 C13.5954073,36.6852523 13.3655425,36.2255228 13.1725,35.75 C12.9925291,35.3016487 12.840979,34.8424061 12.71875,34.375 C12.4920673,33.4758533 12.3766206,32.5522794 12.3749982,31.625 L12.3749982,18.5625 C12.3742689,18.0152672 12.5913326,17.4902373 12.978285,17.103285 C13.3652373,16.7163326 13.8902672,16.4992689 14.4375,16.4999982 L32.3125,16.4999982 C32.8597328,16.4992689 33.3847627,16.7163326 33.771715,17.103285 C34.1586674,17.4902373 34.3757311,18.0152672 34.3749982,18.5625 Z" id="Path" fill="#7B83EB" fill-rule="nonzero"></path>
            <path d="M21.5416163,11 L17.5762263,11 C18.63872,13.2396221 20.8961293,14.667002 23.375,14.6666163 L23.375,12.8333013 C23.3720096,11.822006 22.5529116,11.0029449 21.5416163,11 L21.5416163,11 Z" id="Path" fill="#000000" fill-rule="nonzero" opacity="0.2"></path>
            <path d="M24.75,16.4999982 L24.75,33.92125 C24.75,34.7752624 24.1545514,35.5137236 23.32,35.695 C23.1906492,35.733484 23.0561889,35.7520302 22.92125,35.7501503 L13.1725,35.7501503 C12.9925291,35.3016487 12.840979,34.8424061 12.71875,34.375 C12.4920673,33.4758533 12.3766206,32.5522794 12.3749982,31.625 L12.3749982,18.5625 C12.3742689,18.0152672 12.5913326,17.4902373 12.978285,17.103285 C13.3652373,16.7163326 13.8902672,16.4992689 14.4375,16.4999982 L24.75,16.4999982 Z" id="Path" fill="#000000" fill-rule="nonzero" opacity="0.1"></path>
            <path d="M23.3749982,16.4999982 L23.3749982,35.29625 C23.376999,35.431187 23.3584534,35.5656426 23.32,35.695 C23.1386953,36.5295339 22.4002513,37.125 21.54625,37.125 L13.86,37.125 C13.5954073,36.6852523 13.3655425,36.2255228 13.1725,35.75 C12.9925291,35.3016487 12.840979,34.8424061 12.71875,34.375 C12.4920673,33.4758533 12.3766206,32.5522794 12.3749982,31.625 L12.3749982,18.5625 C12.3742689,18.0152672 12.5913326,17.4902373 12.978285,17.103285 C13.3652373,16.7163326 13.8902672,16.4992689 14.4375,16.4999982 L23.3749982,16.4999982 Z" id="Path" fill="#000000" fill-rule="nonzero" opacity="0.2"></path>
            <path d="M23.3749982,16.4999982 L23.3749982,32.54625 C23.3705722,33.554401 22.554401,34.3705722 21.54625,34.375 L12.71875,34.375 C12.4920673,33.4758533 12.3766206,32.5522794 12.3749982,31.625 L12.3749982,18.5625 C12.3742689,18.0152672 12.5913326,17.4902373 12.978285,17.103285 C13.3652373,16.7163326 13.8902672,16.4992689 14.4375,16.4999982 L23.3749982,16.4999982 Z" id="Path" fill="#000000" fill-rule="nonzero" opacity="0.2"></path>
            <path d="M14.4375,16.4999982 C13.8902672,16.4992689 13.3652373,16.7163326 12.978285,17.103285 C12.5913326,17.4902373 12.3742689,18.0152672 12.3749982,18.5625 L12.3749982,31.625 C12.3766206,32.5522794 12.4920673,33.4758533 12.71875,34.375 L20.17125,34.375 C21.179401,34.3705722 21.9955722,33.554401 22,32.54625 L22,16.4999982 L14.4375,16.4999982 Z" id="Path" fill="#000000" fill-rule="nonzero" opacity="0.2"></path>
            <path d="M1.8333425,11 L20.1667125,11 C21.1792159,11 22,11.8208253 22,12.8333287 L22,31.1666575 C22,32.1791663 21.1792213,33 20.1667125,33 L1.8333425,33 C0.820815396,33 0,32.1791846 0,31.1666575 L0,12.8333425 C0,11.8208154 0.820815396,11 1.8333425,11 Z" id="Back_Plate" fill="#4B53BC" fill-rule="nonzero"></path>
            <polygon id="Path" fill="#FFFFFF" fill-rule="nonzero" points="16.4719638 17.840625 12.3623638 17.840625 12.3623638 28.8685375 9.6614925 28.8685375 9.6614925 17.840625 5.5280775 17.840625 5.5280775 15.1314075 16.4719638 15.1314075"></polygon>
            <rect id="Rectangle" x="0" y="0" width="44" height="44"></rect>
        </g>
    </g>
</svg>