<?xml version="1.0" encoding="UTF-8"?>
<svg width="48px" height="48px" viewBox="0 0 48 48" version="1.1" xmlns="http://www.w3.org/2000/svg" xmlns:xlink="http://www.w3.org/1999/xlink">
    <!-- Generator: Sketch 55.2 (78181) - https://sketchapp.com -->
    <title>one note</title>
    <desc>Created with Sketch.</desc>
    <g id="one-note" stroke="none" stroke-width="1" fill="none" fill-rule="evenodd">
        <g id="onenote-2" transform="translate(2.000000, 2.000000)">
            <path d="M12.832875,2.75 L42.167125,2.75 C43.1793939,2.75 44,3.57060609 44,4.582875 L44,39.417125 C44,40.4293939 43.1793939,41.25 42.167125,41.25 L12.832875,41.25 C11.8206061,41.25 11,40.4293939 11,39.417125 L11,4.582875 C11,3.57060609 11.8206061,2.75 12.832875,2.75 Z" id="Path" fill="#CA64EA" fill-rule="nonzero"></path>
            <path d="M44,4.582875 C44,3.57060609 43.1793939,2.75 42.167125,2.75 L12.8315,2.75 C11.8197681,2.75075899 11,3.57114282 11,4.582875 L11,39.417125 C11,40.4293939 11.8206061,41.25 12.832875,41.25 L34.375,41.25 L44,12.375 L44,4.582875 Z" id="Path" fill="#CA64EA" fill-rule="nonzero"></path>
            <polygon id="Path" fill="#AE4BD5" fill-rule="nonzero" points="44 12.375 34.375 12.375 34.375 22 39.1875 26.393125 44 22"></polygon>
            <polygon id="Path" fill="#9332BF" fill-rule="nonzero" points="44 22 34.375 22 34.375 31.625 39.1875 36.293125 44 31.625"></polygon>
            <path d="M34.375,31.625 L44,31.625 L44,39.417125 C44,40.4293939 43.1793939,41.25 42.167125,41.25 L34.375,41.25 L34.375,31.625 L34.375,31.625 Z" id="Path" fill="#7719AA" fill-rule="nonzero"></path>
            <path d="M22.917125,9.625 L11,9.625 L11,35.75 L22.917125,35.75 C23.9281402,35.7469798 24.7469798,34.9281402 24.75,33.917125 L24.75,11.457875 C24.7469798,10.4468598 23.9281402,9.62802023 22.917125,9.625 Z" id="Path" fill="#000000" fill-rule="nonzero" opacity="0.1"></path>
            <path d="M21.542125,11 L11,11 L11,37.125 L21.542125,37.125 C22.5531402,37.1219798 23.3719798,36.3031402 23.375,35.292125 L23.375,12.832875 C23.3719798,11.8218598 22.5531402,11.0030202 21.542125,11 L21.542125,11 Z" id="Path" fill="#000000" fill-rule="nonzero" opacity="0.2"></path>
            <path d="M21.542125,11 L11,11 L11,34.375 L21.542125,34.375 C22.5531402,34.3719798 23.3719798,33.5531402 23.375,32.542125 L23.375,12.832875 C23.3719798,11.8218598 22.5531402,11.0030202 21.542125,11 L21.542125,11 Z" id="Path" fill="#000000" fill-rule="nonzero" opacity="0.3"></path>
            <path d="M20.167125,11 L11,11 L11,34.375 L20.167125,34.375 C21.1781402,34.3719798 21.9969798,33.5531402 22,32.542125 L22,12.832875 C21.9969798,11.8218598 21.1781402,11.0030202 20.167125,11 Z" id="Path" fill="#000000" fill-rule="nonzero" opacity="0.2"></path>
            <path d="M1.832875,11 L20.167125,11 C21.1793939,11 22,11.8206061 22,12.832875 L22,31.167125 C22,32.1793939 21.1793939,33 20.167125,33 L1.832875,33 C0.820606089,33 0,32.1793939 0,31.167125 L0,12.832875 C0,11.8206061 0.820606089,11 1.832875,11 Z" id="Path" fill="#7719AA" fill-rule="nonzero"></path>
            <path d="M5.501375,15.125 L8.430125,15.125 L13.457125,24.3815 C13.7192917,24.78025 13.916375,25.1010833 14.048375,25.344 L14.084125,25.344 C14.0141174,24.7389194 13.98655,24.1296805 14.001625,23.52075 L14.001625,15.125 L16.498625,15.125 L16.498625,28.875 L13.756875,28.875 L8.514,19.75875 C8.31225592,19.4584705 8.13389699,19.1431245 7.9805,18.8155 L7.93375,18.8155 C7.99463981,19.4810074 8.01988422,20.1492956 8.009375,20.8175 L8.009375,28.875 L5.5,28.875 L5.501375,15.125 Z" id="Path" fill="#FFFFFF" fill-rule="nonzero"></path>
            <polygon id="Path" points="0 0 44 0 44 44 0 44"></polygon>
        </g>
    </g>
</svg>