<?xml version="1.0" encoding="UTF-8"?>
<svg width="48px" height="48px" viewBox="0 0 48 48" version="1.1" xmlns="http://www.w3.org/2000/svg" xmlns:xlink="http://www.w3.org/1999/xlink">
    <!-- Generator: Sketch 55.2 (78181) - https://sketchapp.com -->
    <title>pivotal tracker</title>
    <desc>Created with Sketch.</desc>
    <defs>
        <polygon id="path-1" points="0.0254545455 42 41.9605455 42 41.9605455 0.0381818182 0.0254545455 0.0381818182"></polygon>
        <polygon id="path-3" points="0.0254545455 42 41.9605455 42 41.9605455 0.0381818182 0.0254545455 0.0381818182"></polygon>
    </defs>
    <g id="pivotal-tracker" stroke="none" stroke-width="1" fill="none" fill-rule="evenodd">
        <g id="Tracker_Icon" transform="translate(3.000000, 3.000000)">
            <path d="M15.4237576,9.65448485 L20.1082424,17.767697 C20.8519394,17.5687273 21.6639394,17.6268485 22.4021212,17.9721818 L24.8648485,13.7068485 L20.7484242,6.57915152 L15.3753939,9.68206061 L15.3758182,9.68206061 L15.4237576,9.65448485" id="Fill-1" fill="#DE752C" fill-rule="nonzero"></path>
            <path d="M8.36181818,20.1498182 L17.7329091,20.1498182 C17.8075758,19.8710909 17.9153333,19.5961818 18.0663636,19.3352727 C18.3209091,18.8936364 18.6624242,18.5351515 19.0544242,18.2615152 L16.5921212,13.9974545 L8.35927273,13.9974545 L8.35927273,20.2028485 L8.36181818,20.2028485 L8.36181818,20.1498182" id="Fill-2" fill="#DE752C" fill-rule="nonzero"></path>
            <path d="M23.8929091,22.6995152 C23.6375152,23.1411515 23.2981212,23.4983636 22.9069697,23.7715758 L25.3709697,28.0390303 L33.601697,28.0390303 L33.601697,21.8875152 L24.2267879,21.8875152 C24.1512727,22.1662424 24.0426667,22.4386061 23.8929091,22.6995152" id="Fill-3" fill="#DE752C" fill-rule="nonzero"></path>
            <path d="M23.3549697,18.6399394 C23.9234545,19.2058788 24.2615758,19.9491515 24.3294545,20.7284848 L29.2532121,20.7284848 L33.3696364,13.6003636 L28.0424242,10.5237576 L23.3549697,18.6399394" id="Fill-4" fill="#DE752C" fill-rule="nonzero"></path>
            <path d="M13.917697,31.5135758 L18.6051515,23.394 C18.0392121,22.8272121 17.7010909,22.0860606 17.6315152,21.3092727 L12.7052121,21.3092727 L8.58878788,28.434 L13.9605455,31.5390303 L13.917697,31.5135758" id="Fill-5" fill="#DE752C" fill-rule="nonzero"></path>
            <g id="Group-9">
                <g id="Fill-6-Clipped">
                    <mask id="mask-2" fill="white">
                        <use xlink:href="#path-1"></use>
                    </mask>
                    <g id="path-1"></g>
                    <path d="M26.5376364,32.3807273 L21.854,24.2670909 C21.1107273,24.4677576 20.2978788,24.4113333 19.5588485,24.0638788 L17.0952727,28.3304848 L21.2091515,35.4564848 L26.5826061,32.3548485 L26.5376364,32.3807273" id="Fill-6" fill="#DE752C" fill-rule="nonzero" mask="url(#mask-2)"></path>
                </g>
                <g id="Fill-8-Clipped">
                    <mask id="mask-4" fill="white">
                        <use xlink:href="#path-3"></use>
                    </mask>
                    <g id="path-1"></g>
                    <path d="M20.9817576,0.0381818182 C9.41266667,0.0381818182 0,9.44830303 0,21.015697 C0,32.5864848 9.41266667,42 20.9817576,42 C32.55,42 41.9605455,32.5864848 41.9605455,21.015697 C41.9605455,9.44830303 32.55,0.0381818182 20.9817576,0.0381818182 L20.9817576,0.0381818182 Z M20.9817576,4.28569697 C30.2217576,4.28569697 37.7121818,11.7752727 37.7121818,21.015697 C37.7121818,30.2586667 30.2217576,37.7520606 20.9817576,37.7520606 C11.7404848,37.7520606 4.24878788,30.2586667 4.24878788,21.015697 C4.24878788,11.7752727 11.7404848,4.28569697 20.9817576,4.28569697 L20.9817576,4.28569697 Z" id="Fill-8" fill="#517A9E" fill-rule="nonzero" mask="url(#mask-4)"></path>
                </g>
            </g>
        </g>
    </g>
</svg>