<?xml version="1.0" encoding="UTF-8"?>
<svg width="48px" height="48px" viewBox="0 0 48 48" version="1.1" xmlns="http://www.w3.org/2000/svg" xmlns:xlink="http://www.w3.org/1999/xlink">
    <!-- Generator: Sketch 55.2 (78181) - https://sketchapp.com -->
    <title>prezi</title>
    <desc>Created with Sketch.</desc>
    <g id="prezi" stroke="none" stroke-width="1" fill="none" fill-rule="evenodd">
        <g id="Prezi_logo_transparent_2012" transform="translate(2.000000, 2.000000)" fill-rule="nonzero">
            <g id="g3216">
                <g id="g5003" transform="translate(7.122709, 7.226794)" fill="#1966CC">
                    <path d="M4.93474454,14.7161221 C4.863475,20.1240926 9.48535709,24.63585 14.8928374,24.63585 C20.3003177,24.63585 24.7278717,20.1245599 24.7278717,14.7161221 C24.7278717,9.3076842 20.3016552,4.92670174 14.8928374,4.92670174 C7.73266175,4.92670174 4.98677501,10.7680655 4.93474454,14.7161221 L4.93474454,14.7161221 Z M14.8928374,5.98806911 C19.7129997,5.98806911 23.4949898,9.89510663 23.4949898,14.7161221 C23.4949898,19.5371375 19.7129997,23.3635761 14.8928374,23.3635761 C10.0726751,23.3635761 6.16762643,19.5371375 6.16762643,14.7161221 C6.16762643,9.89510663 10.0726751,5.98806911 14.8928374,5.98806911 L14.8928374,5.98806911 Z" id="path3854"></path>
                    <path d="M2.5098152,14.7157487 C2.5098152,21.7106047 8.37159737,26.9344604 14.8923377,26.9344604 C21.4130779,26.9344604 27.1101233,21.5577871 27.1101233,14.7157487 C27.1101233,7.87371034 21.3640303,2.43792562 14.8923377,2.43792562 C8.42064505,2.43792562 2.5098152,7.4234232 2.5098152,14.7157487 Z M14.8923377,3.54642915 C20.4819651,3.54642915 25.935089,8.3400592 25.935089,14.7157487 C25.935089,21.1340194 20.9901672,25.7620845 14.8923377,25.7620845 C8.51709873,25.7620845 3.79034089,20.87853 3.79034089,14.7157487 C3.79034089,8.31876923 8.79450688,3.54642915 14.8923377,3.54642915 Z" id="path3857"></path>
                    <path d="M0.111572853,14.7218477 C0.111572853,23.1601043 7.02994194,29.3775504 14.8962487,29.3775504 C22.7625555,29.3775504 29.5929195,22.9757534 29.5929195,14.7218477 C29.5929195,6.46794205 22.7517192,-4.69711518e-05 14.8962487,-4.69711518e-05 C7.04077825,-4.69711518e-05 0.111572853,6.00106446 0.111572853,14.7218477 Z M14.8962487,1.21619392 C22.0132228,1.21619392 28.3503638,7.03052276 28.3503638,14.7218477 C28.3503638,22.4645399 22.0832683,28.2041304 14.7271409,28.2041304 C7.41685152,28.2041304 1.2619107,22.1563296 1.2619107,14.7218477 C1.2619107,7.00483918 7.54011894,1.21619392 14.8962487,1.21619392 Z" id="path3859"></path>
                </g>
                <g id="g5008" transform="translate(14.848274, 14.814442)" fill="#318BFF">
                    <polygon id="path3819" points="6.40091194 0.0189438268 7.9586623 0.0189438268 7.9586623 14.1986048 6.40091194 14.1986048"></polygon>
                    <path d="M3.14923366,1.1330032 C3.77464834,0.637038417 4.70698402,0.394308366 4.70698402,0.394308366 L4.70698402,13.783434 C3.82344011,13.5732128 3.15990339,13.0630169 3.15990339,13.0630169 L3.14923366,1.1330032 Z" id="path3821"></path>
                    <path d="M11.2293129,1.10289348 C10.6038982,0.606928705 9.67156252,0.364198654 9.67156252,0.364198654 L9.67156252,13.7533243 C10.5551064,13.5431031 11.2186431,13.0329072 11.2186431,13.0329072 L11.2293129,1.10289348 Z" id="path3834"></path>
                    <path d="M1.43345446,2.75503871 L1.43345446,11.3814714 C1.43345446,11.3814714 0,9.98136975 0,7.09083733 C0,4.20030492 1.43345446,2.75503871 1.43345446,2.75503871 Z" id="path3836"></path>
                    <path d="M12.8274764,2.69481928 L12.8274764,11.321252 C12.8274764,11.321252 14.2609308,9.92115032 14.2609308,7.03061791 C14.2609308,4.14008549 12.8274764,2.69481928 12.8274764,2.69481928 Z" id="path3838"></path>
                </g>
                <g id="g3386" transform="translate(21.974091, 21.981678) rotate(-2.947205) translate(-21.974091, -21.981678) translate(1.090922, 1.085537)" fill="#318BFF">
                    <polygon id="path4983" points="28.96447 6.71042423 31.2237923 2.88286321 29.3598101 1.86628882 27.5098354 5.93956329"></polygon>
                    <polygon id="path3039" points="25.8229075 5.33466842 27.2318055 1.12092093 25.1962217 0.514888871 24.2390555 4.8836962"></polygon>
                    <polygon id="path3041" points="22.531073 4.65026932 23.0460725 0.238051733 20.9292748 0.0603810564 20.8882484 4.53216241"></polygon>
                    <polygon id="path3043" points="19.0865693 4.66105306 18.6635295 0.239114967 16.5564105 0.507926181 17.4554104 4.88901695"></polygon>
                    <polygon id="path3045" points="15.7289795 5.38900332 14.3889222 1.15296128 12.3846583 1.85526565 14.1816055 5.95210302"></polygon>
                    <polygon id="path3047" points="12.6024782 6.79849996 10.4058163 2.93479994 8.59260316 4.0390042 11.2069731 7.67142272"></polygon>
                    <polygon id="path3049" points="9.89049693 8.78193279 6.94799446 5.448391 5.39957363 6.89938196 8.70352055 9.92126509"></polygon>
                    <polygon id="path3051" points="7.59428508 11.3436383 4.01702698 8.69925754 2.80770138 10.4417512 6.67292932 12.7058283"></polygon>
                    <polygon id="path3053" points="5.91728936 14.2600544 1.87259134 12.4037026 1.04706169 14.3565801 5.2954545 15.7817945"></polygon>
                    <polygon id="path3055" points="4.86255908 17.5173666 0.518615151 16.5441616 0.119778373 18.6259388 4.57274319 19.1350844"></polygon>
                    <polygon id="path3057" points="4.5123819 20.8540612 0.060761813 20.7882113 0.0972625745 22.9073666 4.5604348 22.4967195"></polygon>
                    <polygon id="path3059" points="4.87081542 24.2721316 0.504186209 25.1383989 0.984918809 27.2028798 5.26277488 25.8682776"></polygon>
                    <polygon id="path3061" points="5.93559774 27.5315382 1.84689623 29.2893119 2.74950409 31.207939 6.65327983 29.0106875"></polygon>
                    <polygon id="path3063" points="7.65665815 30.4927623 4.02570025 33.0632538 5.30977782 34.7516693 8.66795035 31.7898887"></polygon>
                    <polygon id="path3065" points="9.9081764 32.9845856 6.881149 36.241917 8.48429676 37.6324836 11.1640709 34.0478258"></polygon>
                    <polygon id="path3067" points="12.6943521 35.005328 10.4185924 38.8231818 12.2781843 39.8477263 14.1456587 35.7824079"></polygon>
                    <polygon id="path3069" points="15.859457 36.4040024 14.4404469 40.6143702 16.4745702 41.2252662 17.4422226 36.8587579"></polygon>
                    <polygon id="path3071" points="19.2179522 37.1032909 18.7109367 41.5164295 20.828053 41.6902866 20.8609857 37.2184401"></polygon>
                    <polygon id="path3073" points="22.5804865 37.0951649 22.9891809 41.5184469 25.0971606 41.2564406 24.2123782 36.8724698"></polygon>
                    <polygon id="path3075" points="25.9486157 36.375385 27.2771655 40.6150338 29.2833282 39.9181505 27.4975107 35.8164704"></polygon>
                    <polygon id="path3077" points="29.083364 34.9717725 31.2707432 38.8407105 33.0866023 37.7408424 30.4809598 34.1021883"></polygon>
                    <polygon id="path3079" points="31.8510309 32.9488634 34.7995605 36.2770996 36.3453532 34.8233208 33.0359443 31.8073957"></polygon>
                    <polygon id="path3081" points="34.094389 30.4497259 37.6630498 33.1056459 38.8780217 31.3670665 35.0201592 29.090518"></polygon>
                    <polygon id="path3083" points="35.8113199 27.4703697 39.8585275 29.3212644 40.6814125 27.3672764 36.4310925 25.9477925"></polygon>
                    <polygon id="path3089" points="36.8666321 24.1876883 41.2133418 25.1485314 41.6062266 23.0656293 37.151825 22.5691526"></polygon>
                    <polygon id="path3091" points="37.2069384 20.767774 41.6589403 20.7985654 41.6056774 18.6797641 37.145892 19.1255468"></polygon>
                    <polygon id="path3093" points="36.8233364 17.3610333 41.1834511 16.4626992 40.6874903 14.4018049 36.4196044 15.7678103"></polygon>
                    <polygon id="path3095" points="35.7366451 14.1141957 39.8128223 12.3276984 38.8966753 10.4154691 35.0085274 12.6401313"></polygon>
                    <polygon id="path3097" points="34.0354683 11.2202921 37.6590651 8.63948253 36.3701692 6.95472843 33.0204727 9.92605013"></polygon>
                    <polygon id="path3099" points="31.7153495 8.68012101 34.7165107 5.39905334 33.102412 4.02115323 30.4510812 7.62680494"></polygon>
                </g>
            </g>
        </g>
    </g>
</svg>