<?xml version="1.0" encoding="UTF-8"?>
<svg width="48px" height="48px" viewBox="0 0 48 48" version="1.1" xmlns="http://www.w3.org/2000/svg" xmlns:xlink="http://www.w3.org/1999/xlink">
    <!-- Generator: Sketch 55.2 (78181) - https://sketchapp.com -->
    <title>redmine</title>
    <desc>Created with Sketch.</desc>
    <g id="redmine" stroke="none" stroke-width="1" fill="none" fill-rule="evenodd">
        <g id="Redmine_logo" transform="translate(3.000000, 9.000000)" fill-rule="nonzero">
            <polygon id="Path" fill="#4C4C4C" points="0 29.5527985 9.09278351 29.5527985 9.74226804 21.4925373 1.29842784 19.4781716 0 29.5527985"></polygon>
            <polygon id="Path" fill="#4C4C4C" points="1.62371134 18.1343284 9.74226804 20.1492537 11.6907216 13.0970149 4.87113402 9.40354478 1.62371134 18.1343284"></polygon>
            <polygon id="Path" fill="#4C4C4C" points="5.52007732 8.05970149 12.0149227 11.7537313 17.2113402 8.05970149 12.3402062 2.35074627"></polygon>
            <polygon id="Path" fill="#4C4C4C" points="41.89121 29.5527985 32.7989678 29.5527985 32.148942 21.4925373 40.5927822 19.4781716 41.89121 29.5527985"></polygon>
            <polygon id="Path" fill="#4C4C4C" points="40.2674987 18.1343284 32.148942 20.1492537 30.2010296 13.0970149 37.020076 9.40354478 40.2674987 18.1343284"></polygon>
            <polygon id="Path" fill="#4C4C4C" points="36.3705915 8.05970149 29.8757461 11.7537313 24.6804111 8.05970149 29.5515451 2.35074627"></polygon>
            <polygon id="Path" fill="#4C4C4C" points="13.9639175 1.34328358 18.8350502 7.3880597 23.3809008 7.3880597 27.6030915 1.34328358 23.3809008 0 18.7208492 0 13.9639175 1.34328358"></polygon>
            <polygon id="Path" fill="#9C0000" points="0 29.5527985 9.09278351 29.5527985 9.74226804 21.4925373 1.29842784 19.4781716 0 29.5527985"></polygon>
            <polygon id="Path" fill="#B50808" points="1.62371134 18.1343284 9.74226804 20.1492537 11.6907216 13.0970149 4.87113402 9.40354478 1.62371134 18.1343284"></polygon>
            <polygon id="Path" fill="#C61818" points="5.52007732 8.05970149 12.0149227 11.7537313 17.2113402 8.05970149 12.3402062 2.35074627"></polygon>
            <polygon id="Path" fill="#9C0000" points="41.89121 29.5527985 32.7989678 29.5527985 32.148942 21.4925373 40.5927822 19.4781716 41.89121 29.5527985"></polygon>
            <polygon id="Path" fill="#B50808" points="40.2674987 18.1343284 32.148942 20.1492537 30.2010296 13.0970149 37.020076 9.40354478 40.2674987 18.1343284"></polygon>
            <polygon id="Path" fill="#C61818" points="36.3705915 8.05970149 29.8757461 11.7537313 24.6804111 8.05970149 29.5515451 2.35074627"></polygon>
            <polygon id="Path" fill="#CE3129" points="13.9639175 1.34328358 18.8350502 7.3880597 23.3809008 7.3880597 27.6030915 1.34328358 23.3809008 0 18.7208492 0 13.9639175 1.34328358"></polygon>
        </g>
    </g>
</svg>