<?xml version="1.0" encoding="UTF-8"?>
<svg width="48px" height="48px" viewBox="0 0 48 48" version="1.1" xmlns="http://www.w3.org/2000/svg" xmlns:xlink="http://www.w3.org/1999/xlink">
    <!-- Generator: Sketch 55.2 (78181) - https://sketchapp.com -->
    <title>saleforce</title>
    <desc>Created with Sketch.</desc>
    <defs>
        <polygon id="path-1" points="0.0105494505 0.0890052356 47.853011 0.0890052356 47.853011 33.9893194 0.0105494505 33.9893194"></polygon>
    </defs>
    <g id="saleforce" stroke="none" stroke-width="1" fill="none" fill-rule="evenodd">
        <g id="Salesforce_logo" transform="translate(0.000000, 8.000000)">
            <g id="Clipped">
                <mask id="mask-2" fill="white">
                    <use xlink:href="#path-1"></use>
                </mask>
                <g id="a"></g>
                <path d="M20.3101071,5.38103412 C21.7290604,3.89303412 23.7047956,2.96970604 25.8897283,2.96970604 C28.79408,2.96970604 31.3283755,4.59993176 32.6774886,7.0203727 C33.8846205,6.47743759 35.1921771,6.19760402 36.5143369,6.19923885 C41.7530019,6.19923885 46,10.5114121 46,15.8310446 C46,21.1506772 41.7530019,25.4630131 36.5143369,25.4630131 C35.8746197,25.4630131 35.2499375,25.3982467 34.6456254,25.2755486 C33.457533,27.4087717 31.1925751,28.8503937 28.5936127,28.8503937 C27.5423903,28.8518561 26.5047411,28.6114586 25.5599271,28.1475643 C24.3555062,31.0000525 21.5483165,33 18.2776267,33 C14.8708132,33 11.9672697,30.8304882 10.8535442,27.787769 C10.3571621,27.8931949 9.85120724,27.9462062 9.34389559,27.9459423 C5.28782646,27.9459423 2,24.6018478 2,20.4768136 C2,17.7120367 3.47699181,15.2982677 5.67227113,14.0070079 C5.20715795,12.9289602 4.96781384,11.7659775 4.96918035,10.5906614 C4.96918035,5.84627822 8.79535868,2 13.5150718,2 C16.2860481,2 18.748725,3.32592126 20.3101071,5.38103412" id="Path" fill="#00A1E0" fill-rule="nonzero" mask="url(#mask-2)"></path>
            </g>
        </g>
    </g>
</svg>