<?xml version="1.0" encoding="UTF-8"?>
<svg width="48px" height="48px" viewBox="0 0 48 48" version="1.1" xmlns="http://www.w3.org/2000/svg" xmlns:xlink="http://www.w3.org/1999/xlink">
    <!-- Generator: Sketch 55.2 (78181) - https://sketchapp.com -->
    <title>servicenow</title>
    <desc>Created with Sketch.</desc>
    <g id="servicenow" stroke="none" stroke-width="1" fill="none" fill-rule="evenodd">
        <g id="servicenow-icon" transform="translate(2.000000, 4.000000)" fill="#81B5A1">
            <path d="M22.13,0.209793103 C13.3535054,0.229459871 5.4689424,5.6248948 2.20720162,13.8430359 C-1.05453916,22.0611771 0.960701502,31.4538331 7.29933333,37.5765 C8.8123703,39.033383 11.1538904,39.1562694 12.8086667,37.8656379 C18.2418869,33.8010896 25.6721131,33.8010896 31.1053333,37.8656379 C32.7768357,39.2000939 35.1705352,39.0763409 36.698,37.5765 C43.003649,31.4874581 45.0355924,22.1585366 41.8409793,13.9644007 C38.6463662,5.77026477 30.858741,0.335946818 22.13,0.209793103 M22.01,32.670569 C19.1425023,32.7642701 16.363543,31.6614784 14.3281135,29.6221182 C12.2926839,27.5827579 11.1808498,24.7872425 11.2546667,21.8944655 C11.1238276,17.9562215 13.1322302,14.2593195 16.4935759,12.2511131 C19.8549216,10.2429068 24.0344118,10.2429068 27.3957575,12.2511131 C30.7571031,14.2593195 32.7655057,17.9562215 32.6346667,21.8944655 C32.711084,24.7754034 31.6100089,27.5613586 29.5895669,29.5992183 C27.5691248,31.637078 24.8069812,32.7476451 21.9506667,32.670569" id="Shape"></path>
        </g>
    </g>
</svg>