<?xml version="1.0" encoding="UTF-8"?>
<svg width="48px" height="48px" viewBox="0 0 48 48" version="1.1" xmlns="http://www.w3.org/2000/svg" xmlns:xlink="http://www.w3.org/1999/xlink">
    <!-- Generator: Sketch 55.2 (78181) - https://sketchapp.com -->
    <title>slideshare</title>
    <desc>Created with Sketch.</desc>
    <g id="slideshare" stroke="none" stroke-width="1" fill="none" fill-rule="evenodd">
        <g id="Slideshare" transform="translate(2.000000, 4.000000)">
            <path d="M4.4,21.0540541 L4.4,3.32432432 C4.4,1.44054054 5.9378,0 7.7,0 L36.3,0 C38.17,0 39.6,1.44054054 39.6,3.32432432 L39.6,21.0540541" id="Path" stroke="#BDBDBD" stroke-width="2.2"></path>
            <path d="M23.1,15.5135135 C23.1,12.4108108 25.52,9.97297297 28.6,9.97297297 C31.68,9.97297297 34.1,12.4108108 34.1,15.5135135 C34.1,18.6162162 31.68,21.0540541 28.6,21.0540541 C25.52,21.0540541 23.1,18.6162162 23.1,15.5135135 Z M43.78,17.2887027 C43.8878,17.0626486 44,16.9551622 44,16.6216216 C44,15.9545405 43.5622,15.5135135 42.9,15.5135135 C42.68,15.5135135 42.4622,15.6265405 42.2378,15.7351351 L42.1311,15.8459459 C41.1378,16.8432432 35.4189,22.1621622 29.7,22.1621622 L25.63,22.1621622 C24.2,22.1621622 23.1,23.3832973 23.1,24.7108108 L23.1,37.0085946 C23.1,39.2248108 24.8622,41 27.0622,41 L28.4878,41 C32.7811,41 36.4122,37.4540541 36.4122,33.0216216 C36.4122,33.0216216 36.5189,29.0324324 34.8689,26.372973 C38.2811,24.9324324 43.2311,19.5049189 43.7811,17.2887027 L43.78,17.2887027 Z" id="Shape" fill="#0277BD" fill-rule="nonzero"></path>
            <path d="M23.1,27.3702703 L23.1,31.9135135 C25.1878,31.2486486 29.92,29.1432432 29.7,24.3783784 C26.95,27.0356216 24.53,27.4810811 23.1,27.3702703 L23.1,27.3702703 Z" id="Path" fill="#01579B" fill-rule="nonzero"></path>
            <path d="M15.4,9.97297297 C18.48,9.97297297 20.9,12.4108108 20.9,15.5135135 C20.9,18.6162162 18.48,21.0540541 15.4,21.0540541 C12.32,21.0540541 9.9,18.6162162 9.9,15.5135135 C9.9,12.4108108 12.32,9.97297297 15.4,9.97297297 Z M29.7,24.3783784 C29.7,23.7112973 29.2622,23.2702703 28.6,23.2702703 C28.1622,23.2702703 27.72,23.6027027 27.6122,23.9373514 C26.4,26.1535676 23.98,27.4810811 20.13,22.7162162 L20.13,22.8292432 C19.6867,22.3826757 19.03,22.1621622 18.3678,22.1621622 L14.3,22.1621622 C8.58,22.1621622 2.8622,16.8432432 1.87,15.8459459 L1.7622,15.7351351 C1.5378,15.6265405 1.3189,15.5135135 1.1,15.5135135 C0.4378,15.5135135 0,15.9545405 0,16.6216216 C0,16.8432432 0.1122,17.0626486 0.22,17.2887027 C0.77,19.5049189 5.72,25.0454595 9.2378,26.3740811 C7.5878,29.1443514 7.7,33.0227297 7.7,33.0227297 C7.7,37.3421351 11.22,41 15.62,41 L17.05,41 C19.25,41 21.0122,39.2248108 21.0122,37.0085946 L21.0122,28.5902973 C23.2122,29.5853784 28.05,30.0308378 29.5878,24.9324324 C29.5878,24.8194054 29.7,24.6 29.7,24.3783784 Z" id="Shape" fill="#FB8C00" fill-rule="nonzero"></path>
        </g>
    </g>
</svg>