<?xml version="1.0" encoding="UTF-8"?>
<svg width="48px" height="48px" viewBox="0 0 48 48" version="1.1" xmlns="http://www.w3.org/2000/svg" xmlns:xlink="http://www.w3.org/1999/xlink">
    <!-- Generator: Sketch 55.2 (78181) - https://sketchapp.com -->
    <title>SurveyMonkey</title>
    <desc>Created with Sketch.</desc>
    <g id="SurveyMonkey" stroke="none" stroke-width="1" fill="none" fill-rule="evenodd">
        <g id="Vertical_Sabaeus_RGB" transform="translate(0.000000, 6.000000)" fill="#00BF6F" fill-rule="nonzero">
            <path d="M42.3752106,19.3952284 C41.9176874,19.3973502 41.462066,19.4551566 41.018106,19.5674094 C39.327255,12.8273186 33.9153018,7.70961788 27.1718689,6.47400405 C26.8702901,6.42043664 26.5988692,6.37834796 26.2897509,6.34008553 L26.2897509,6.34008553 C26.3387575,4.66419086 26.4179219,2.72428539 28.849401,0.983344587 L28.4724275,0 C28.4724275,0 23.7376402,1.49223498 23.1947984,5.60927301 C22.9573051,4.48818366 20.7482403,3.08777853 19.6550171,2.82376772 L19.1121753,3.71528247 C20.0796054,4.32022553 20.7306393,5.33175772 20.8877205,6.47400405 L20.8877205,6.47400405 C14.1418221,7.70886013 8.72786192,12.8285609 7.03771372,19.5712357 C4.65871514,18.9730582 2.17022282,19.9930704 0.867634935,22.1002993 C-0.434952949,24.2075282 -0.257115907,26.9255207 1.30857202,28.8394111 C2.87425995,30.7533015 5.47379028,31.4303512 7.75396339,30.5181184 C8.23813495,31.745099 8.85647312,32.9130386 9.59736385,34 L14.305763,30.7783029 L14.2642959,30.7247355 C13.0202833,29.098582 12.2550271,26.7071798 12.1306258,24.3272564 C11.9911456,21.7024533 12.6206914,19.0929552 14.2718354,17.5586316 C17.664597,14.6162503 21.3853255,15.9554355 23.6961731,18.7792032 L24.3219492,18.7792032 C26.644106,15.9592618 30.3535253,14.6162503 33.7462869,17.5586316 C35.3974309,19.089129 36.0307464,21.7024533 35.8874965,24.3272564 C35.7593255,26.7071798 34.997839,29.098582 33.7538264,30.7247355 L33.7123593,30.7783029 L38.4207585,34 C39.1616492,32.9130386 39.7799874,31.745099 40.2641589,30.5181184 C42.3831233,31.3572846 44.7910363,30.8308513 46.3817179,29.1806588 C47.9723995,27.5304662 48.4383282,25.0755408 47.5654594,22.9436598 C46.6925906,20.8117788 44.6496732,19.415092 42.3752106,19.3952284 Z M5.58259597,26.8526002 C4.65820257,26.8526002 3.90883368,26.091975 3.90883368,25.153725 C3.90883368,24.2154749 4.65820257,23.4548728 5.58259597,23.4548728 C5.91733658,23.456489 6.24405359,23.5590364 6.52126001,23.7494936 C6.53451612,24.6447983 6.59365524,25.5387968 6.69843756,26.4278641 C6.39042349,26.7035903 5.99328326,26.8547503 5.58259597,26.8526002 Z M42.4883026,26.8525771 C42.0709325,26.8553858 41.6675873,26.6998171 41.3573821,26.4163853 C41.4621644,25.527318 41.5213035,24.6333196 41.5345597,23.7380149 C42.0471547,23.3823459 42.7118441,23.3447002 43.2602421,23.6402783 C43.8086401,23.9358563 44.1501915,24.5158504 44.1469861,25.1460725 C44.1499957,25.5956244 43.9769303,26.0279762 43.6658647,26.3480101 C43.354799,26.6680441 42.9312154,26.849543 42.4883026,26.8525771 Z" id="_Compound_Path_13"></path>
        </g>
    </g>
</svg>