<?xml version="1.0" encoding="UTF-8"?>
<svg width="48px" height="48px" viewBox="0 0 48 48" version="1.1" xmlns="http://www.w3.org/2000/svg" xmlns:xlink="http://www.w3.org/1999/xlink">
    <!-- Generator: Sketch 55.2 (78181) - https://sketchapp.com -->
    <title>targetprocess</title>
    <desc>Created with Sketch.</desc>
    <g id="targetprocess" stroke="none" stroke-width="1" fill="none" fill-rule="evenodd">
        <g id="logo" transform="translate(4.000000, 3.000000)">
            <path d="M38.3071429,16.0045551 C37.9379365,16.0045551 37.5571429,15.8767985 37.2455556,15.6214449 L22.3377778,3.03757414 C21.6339683,2.44542205 21.5531746,1.40069202 22.13,0.69260076 C22.7185714,-0.0154904943 23.7569841,-0.10843346 24.4607937,0.483558935 L39.3685714,13.0674297 C40.072381,13.6594221 40.1530159,14.7043118 39.5761905,15.412403 C39.2419048,15.8071711 38.7801587,16.0045551 38.3071429,16.0045551 Z" id="Path" fill="#649690" fill-rule="nonzero"></path>
            <path d="M16.4071429,41.9733308 C15.7263492,41.9733308 15.091746,41.5554068 14.8493651,40.8704715 C14.5379365,40.0114677 14.9879365,39.0595209 15.841746,38.746038 L34.3611111,32.0479163 C35.2149206,31.7344335 36.1611111,32.1871711 36.4726984,33.0461749 C36.7842857,33.9051787 36.3342857,34.8569658 35.4803175,35.1704487 L16.9609524,41.86873 C16.7877778,41.9501749 16.6031746,41.9733308 16.4071429,41.9733308 Z" id="Path" fill="#EEC41A" fill-rule="nonzero"></path>
            <g id="Group" transform="translate(0.000000, 6.707224)">
                <path d="M1.7415873,21.2195817 L5.12238095,1.75170342" id="Path"></path>
                <path d="M1.7415873,22.8796198 C1.64920635,22.8796198 1.55698413,22.867962 1.4531746,22.8563042 C0.553174603,22.6937338 -0.0468253968,21.8348897 0.114603175,20.9292548 L3.49539683,1.46137643 C3.65698413,0.555901141 4.51079365,-0.0477490494 5.41079365,0.114821293 C6.31079365,0.277391635 6.91079365,1.13639544 6.74920635,2.04187072 L3.3684127,21.509749 C3.23015873,22.3107833 2.52619048,22.8796198 1.7415873,22.8796198 Z" id="Path" fill="#A11C3D" fill-rule="nonzero"></path>
            </g>
            <path d="M10.0839683,14.3097034 C9.9915873,14.3097034 9.88777778,14.2980456 9.79555556,14.2863878 C8.89555556,14.1238175 8.29555556,13.2648137 8.45714286,12.3593384 L9.58793651,5.92822814 C9.74952381,5.02275285 10.6147619,4.41910266 11.5033333,4.58151331 C12.4033333,4.74408365 13.0033333,5.60308745 12.841746,6.50856274 L11.7109524,12.9398327 C11.572381,13.7408669 10.8801587,14.3097034 10.0839683,14.3097034 Z" id="Path" fill="#018AB9" fill-rule="nonzero"></path>
            <path d="M6.7147619,33.5918555 C6.62238095,33.5918555 6.51857143,33.5801977 6.42634921,33.5685399 C5.52634921,33.4059696 4.92634921,32.5469658 5.08777778,31.6414905 L6.21857143,25.2218783 C6.38015873,24.316403 7.23396825,23.7127529 8.13396825,23.8753232 C9.03396825,24.0378935 9.63396825,24.8968973 9.47253968,25.8023726 L8.34174603,32.2219848 C8.1915873,33.023019 7.49936508,33.5918555 6.7147619,33.5918555 Z" id="Path" fill="#53110F" fill-rule="nonzero"></path>
            <path d="M22.2685714,9.85195437 C21.8993651,9.85195437 21.5185714,9.72435741 21.2069841,9.46884411 L16.2338095,5.27810646 C15.53,4.68595437 15.4492063,3.64122433 16.0261905,2.93313308 C16.6146032,2.23669962 17.6531746,2.14375665 18.3569841,2.72409125 L23.3301587,6.9148289 C24.034127,7.50682129 24.1147619,8.55171103 23.5379365,9.25980228 C23.2147619,9.64307224 22.741746,9.85195437 22.2685714,9.85195437 Z" id="Path" fill="#4F9E4E" fill-rule="nonzero"></path>
            <path d="M37.1763492,22.4358251 C36.8071429,22.4358251 36.4263492,22.3082281 36.1147619,22.0527148 L31.141746,17.8619772 C30.4377778,17.2698251 30.3571429,16.2250951 30.9339683,15.5170038 C31.522381,14.8205703 32.5609524,14.7276274 33.2647619,15.307962 L38.2379365,19.4986996 C38.941746,20.0908517 39.022381,21.1355817 38.4457143,21.843673 C38.1225397,22.226943 37.6493651,22.4358251 37.1763492,22.4358251 Z" id="Path" fill="#0D6D65" fill-rule="nonzero"></path>
            <path d="M29.9533333,31.0843118 C29.284127,31.0843118 28.6495238,30.6663878 28.4071429,29.9931103 C28.0957143,29.1341065 28.534127,28.1821597 29.3993651,27.8686768 L35.491746,25.6398023 C36.3455556,25.3263194 37.291746,25.7673992 37.6033333,26.6380608 C37.9147619,27.4970646 37.4763492,28.4490114 36.6109524,28.7624943 L30.5185714,30.9913688 C30.3339683,31.0609962 30.1493651,31.0843118 29.9533333,31.0843118 Z" id="Path" fill="#018AB9" fill-rule="nonzero"></path>
            <path d="M18.8993651,29.1224487 C18.53,29.1224487 18.1493651,28.9948517 17.8377778,28.7393384 L12.8646032,24.5486008 C12.1607937,23.9564487 12.08,22.9117186 12.6568254,22.2036274 C13.2453968,21.5070342 14.2838095,21.4025932 14.987619,21.9945856 L19.9607937,26.1853232 C20.6646032,26.7774753 20.7453968,27.8222053 20.1685714,28.5302966 C19.8339683,28.9250646 19.372381,29.1224487 18.8993651,29.1224487 Z" id="Path" fill="#91BDAE" fill-rule="nonzero"></path>
            <path d="M24.991746,26.8935741 C24.8993651,26.8935741 24.7955556,26.8819163 24.7033333,26.8704183 C23.8033333,26.7078479 23.2033333,25.8488441 23.3649206,24.9433688 L24.4957143,18.5122586 C24.6573016,17.6067833 25.5226984,17.0031331 26.4111111,17.1655437 C27.3111111,17.3281141 27.9111111,18.1871179 27.7495238,19.0925932 L26.6187302,25.5237034 C26.4801587,26.3247376 25.7763492,26.8935741 24.991746,26.8935741 Z" id="Path" fill="#4A635B" fill-rule="nonzero"></path>
            <path d="M15.0569841,18.5120989 C14.3877778,18.5120989 13.7531746,18.0941749 13.5107937,17.4208973 C13.1992063,16.5618935 13.6377778,15.6099468 14.5030159,15.2964639 L20.5953968,13.0675894 C21.4492063,12.7541065 22.3953968,13.1951863 22.7069841,14.0658479 C23.0185714,14.9248517 22.58,15.8767985 21.7147619,16.1902814 L15.622381,18.4191559 C15.4377778,18.4772852 15.2415873,18.5120989 15.0569841,18.5120989 Z" id="Path" fill="#B8BB63" fill-rule="nonzero"></path>
            <path d="M11.6763492,37.7825932 C11.0071429,37.7825932 10.3725397,37.3646692 10.1301587,36.6913916 C9.81857143,35.8323878 10.2569841,34.8804411 11.122381,34.5669582 L17.2147619,32.3380837 C18.0685714,32.0246008 19.0147619,32.4656806 19.3263492,33.3363422 C19.6377778,34.195346 19.1993651,35.1472928 18.334127,35.4607757 L12.241746,37.6896502 C12.0569841,37.7477795 11.8609524,37.7825932 11.6763492,37.7825932 Z" id="Path" fill="#E28925" fill-rule="nonzero"></path>
        </g>
    </g>
</svg>