<?xml version="1.0" encoding="UTF-8"?>
<svg width="386px" height="385px" viewBox="0 0 386 385" version="1.1" xmlns="http://www.w3.org/2000/svg" xmlns:xlink="http://www.w3.org/1999/xlink">
    <title>toasty_bread_logo</title>
    <g id="toasty_bread_logo" stroke="none" stroke-width="1" fill="none" fill-rule="evenodd">
        <circle id="Oval" fill="#FFB400" cx="192.5" cy="192.5" r="192.5"></circle>
        <path d="M251.859722,294.451815 L246.309628,295.860014 L141.149405,295.860014 C125.384223,295.860014 112.558959,283.165419 112.558959,267.553842 L112.558959,176.121545 C101.528191,167.204113 95.0756427,156.857671 93.6872515,145.918122 C93.5032896,144.42668 93.4026313,142.917896 93.4026313,141.405644 C93.4026313,128.163032 101.614965,117.445464 113.971647,107.567266 M113.971647,107.567266 C131.107866,99.9158243 151.833076,93.9361847 175.463495,93.9361847 C230.648575,93.9361847 275.538734,118.895284 275.538734,149.570419 C275.538734,160.693797 269.471464,171.487671 257.996411,180.814383 C256.951647,181.653752 256.420587,182.940554 256.420587,184.244698 L256.403232,184.244698 L256.403232,283.023212 M201.645082,80.648482 C181.398867,80.648482 162.63476,83.6417703 146.588428,88.8687523 C146.425292,88.844473 134.013075,91.2550586 120.153459,97.7445631 C109.042858,102.943797 94.6973061,111.802266 85.1972391,125.585959 C79.8172231,131.815329 76.4399615,138.679428 75.5930428,145.918122 C75.4715586,147.12168 75.3882551,148.34605 75.3882551,149.570419 C75.3882551,160.693797 81.4555248,171.487671 92.9514041,180.814383 C93.9961685,181.653752 94.5237572,182.940554 94.5237572,184.244698 L94.544583,184.244698 L94.544583,283.023212 C94.544583,294.777851 103.694081,304.350824 114.971289,304.350824 L235.976526,304.350824 C237.014349,304.350824 238.024403,304.239833 239.020574,304.083752 C239.086522,304.076815 239.152471,304.073347 239.221891,304.056005 L239.305194,304.028257 C240.863663,303.761185 242.359655,303.310284 243.779285,302.692896 L271.772723,294.320014 C271.960156,294.264518 272.105937,294.150059 272.227421,294.014788 C283.032576,289.970554 290.755502,279.65186 290.755502,267.553842 L290.755502,176.121545 C303.27532,165.979743 309.891004,154.020464 309.891004,141.405644 C309.891004,107.345284 262.345546,80.648482 201.645082,80.648482" id="Fill-4" fill="#EE8122"></path>
        <path d="M175.4628,93.9361847 C154.786184,93.9361847 130.579583,96.7803288 121.561982,101.608437 C118.667186,103.158842 113.970953,105.642266 109.885612,108.750014 C97.52893,118.628212 93.4019371,128.163032 93.4019371,141.409113 C93.4019371,142.917896 93.5025954,144.42668 93.6865573,145.918122 C95.0749485,156.857671 101.530968,167.204113 112.558265,176.121545 L112.558265,267.553842 C112.558265,283.165419 125.383529,295.860014 141.152182,295.860014 L245.215576,295.860014 C245.215576,295.860014 250.029822,296.172176 252.976682,293.685284 C255.920072,291.198392 256.402538,287.837446 256.402538,283.023212 L256.402538,184.244698 L256.423364,184.244698 C256.423364,182.940554 256.954423,181.653752 257.995717,180.814383 C269.47077,171.487671 275.53804,160.693797 275.53804,149.570419 C275.53804,118.895284 230.647881,93.9361847 175.4628,93.9361847" id="Fill-6" fill="#FFF7E9"></path>
        <path d="M152.557122,215.171644 C169.262939,205.376689 185.538356,194.926194 201.393783,183.809752 C208.200371,179.040608 201.7027,167.75768 194.823222,172.578851 C178.967794,183.695293 162.692378,194.145788 145.986561,203.940743 C138.766926,208.172275 145.30972,219.420518 152.557122,215.171644" id="Fill-8" fill="#EE8122"></path>
        <path d="M172.244162,247.099243 L209.411396,224.408523 C216.547726,220.052126 210.015346,208.800414 202.840834,213.177622 C190.452913,220.742351 178.061522,228.307081 165.673601,235.868342 C158.53727,240.228207 165.069651,251.479919 172.244162,247.099243" id="Fill-10" fill="#EE8122"></path>
    </g>
</svg>