<?xml version="1.0" encoding="UTF-8"?>
<svg width="48px" height="48px" viewBox="0 0 48 48" version="1.1" xmlns="http://www.w3.org/2000/svg" xmlns:xlink="http://www.w3.org/1999/xlink">
    <!-- Generator: Sketch 55.2 (78181) - https://sketchapp.com -->
    <title>todoist</title>
    <desc>Created with Sketch.</desc>
    <g id="todoist" stroke="none" stroke-width="1" fill="none" fill-rule="evenodd">
        <g id="Group-2" transform="translate(4.000000, 4.000000)">
            <path d="M35,0 L5,0 C2.25,0 0,2.25 0,5 L0,35 C0,37.75 2.25,40 5,40 L35,40 C37.75,40 40,37.75 40,35 L40,5 C40,2.25 37.75,0 35,0" id="Fill-19" fill="#E44332"></path>
            <path d="M8.54521,18.741185 C9.25176,18.333935 24.38511,9.625585 24.73236,9.424985 C25.07896,9.224935 25.09631,8.611135 24.70861,8.389835 C24.32041,8.168585 23.58361,7.749985 23.30941,7.589535 C23.03036,7.426735 22.52831,7.336185 22.06276,7.604385 C21.86946,7.715885 8.93611,15.152485 8.50381,15.398185 C7.98636,15.692285 7.34606,15.696085 6.83036,15.397685 C6.42321,15.161985 1e-05,11.429535 1e-05,11.429535 L1e-05,14.802835 C1.66266,15.771035 5.79651,18.178635 6.79836,18.744235 C7.39631,19.081835 7.96871,19.073485 8.54521,18.741185" id="Fill-21" fill="#FFFFFF"></path>
            <path d="M8.54521,25.48093 C9.25176,25.07368 24.38511,16.36533 24.73236,16.16473 C25.07896,15.96468 25.09631,15.35088 24.70861,15.12958 C24.32041,14.90833 23.58361,14.48973 23.30941,14.32928 C23.03036,14.16648 22.52831,14.07593 22.06276,14.34413 C21.86946,14.45563 8.93611,21.89223 8.50381,22.13793 C7.98636,22.43203 7.34606,22.43583 6.83036,22.13743 C6.42321,21.90173 1e-05,18.16928 1e-05,18.16928 L1e-05,21.54258 C1.66266,22.51078 5.79651,24.91838 6.79836,25.48398 C7.39631,25.82158 7.96871,25.81323 8.54521,25.48093" id="Fill-23" fill="#FFFFFF"></path>
            <path d="M8.54521,32.22068 C9.25176,31.81343 24.38511,23.10508 24.73236,22.90448 C25.07896,22.70443 25.09631,22.09063 24.70861,21.86933 C24.32041,21.64808 23.58361,21.22948 23.30941,21.06903 C23.03036,20.90623 22.52831,20.81568 22.06276,21.08388 C21.86946,21.19538 8.93611,28.63198 8.50381,28.87768 C7.98636,29.17178 7.34606,29.17558 6.83036,28.87718 C6.42321,28.64143 1e-05,24.90903 1e-05,24.90903 L1e-05,28.28233 C1.66266,29.25053 5.79651,31.65813 6.79836,32.22373 C7.39631,32.56133 7.96871,32.55298 8.54521,32.22068" id="Fill-25" fill="#FFFFFF"></path>
        </g>
    </g>
</svg>