<?xml version="1.0" encoding="UTF-8"?>
<svg width="48px" height="48px" viewBox="0 0 48 48" version="1.1" xmlns="http://www.w3.org/2000/svg" xmlns:xlink="http://www.w3.org/1999/xlink">
    <!-- Generator: Sketch 55.2 (78181) - https://sketchapp.com -->
    <title>typeform</title>
    <desc>Created with Sketch.</desc>
    <g id="typeform" stroke="none" stroke-width="1" fill="none" fill-rule="evenodd">
        <g id="typeform-1-logo-svg-vector" transform="translate(11.000000, 3.000000)" fill-rule="nonzero">
            <polygon id="Path" fill="#89C6BE" points="22.7847914 0.050602908 26.9831825 0.050602908 26.9831825 41.9850617 22.7847914 41.9850617"></polygon>
            <path d="M0.00869670172,9.60141698 L5.27002647,9.60141698 L5.27002647,0.00452973204 L12.2427942,0.00452973204 L12.2427942,9.60141698 L18.5432868,9.60141698 L18.5432868,14.8643196 L12.2427942,14.8643196 L12.2427942,31.9537406 C12.2427942,32.6960882 12.2734386,33.3368677 12.3347275,33.8728696 C12.3952766,34.4102174 12.538143,34.8637017 12.7623756,35.2354967 C12.9867139,35.6066705 13.3224288,35.8852838 13.7723734,36.0711295 C14.220416,36.2570788 14.8319306,36.3496393 15.6072344,36.3496393 C16.0962771,36.3496393 16.5859538,36.340114 17.0749964,36.3183717 C17.5645675,36.2985964 18.0536101,36.2257076 18.5432868,36.1025007 L18.5432868,41.5512491 C17.7680887,41.6330419 17.0136019,41.715456 16.2801436,41.7991124 C15.5286797,41.8817133 14.7730727,41.9228817 14.0168947,41.9224267 C12.1813997,41.9224267 10.703282,41.7461024 9.58190759,41.396671 C8.45968783,41.0458936 7.58399713,40.5290458 6.95219374,39.8480946 C6.31901664,39.1670399 5.89126282,38.3102859 5.6670302,37.2779361 C5.4420579,36.24745 5.30975854,35.0706686 5.2699208,33.7494556 L5.2699208,14.8644232 L0.00869670172,14.8644232 L0.00869670172,9.60141698" id="Path" fill="#33393F"></path>
        </g>
    </g>
</svg>