<?xml version="1.0" encoding="UTF-8"?>
<svg width="48px" height="48px" viewBox="0 0 48 48" version="1.1" xmlns="http://www.w3.org/2000/svg" xmlns:xlink="http://www.w3.org/1999/xlink">
    <!-- Generator: Sketch 55.2 (78181) - https://sketchapp.com -->
    <title>uxpin</title>
    <desc>Created with Sketch.</desc>
    <g id="uxpin" stroke="none" stroke-width="1" fill="none" fill-rule="evenodd">
        <g id="uxpin-dark" transform="translate(4.000000, 16.000000)" fill="#000000" fill-rule="nonzero">
            <path d="M1.97979798,0.242857143 L1.97979798,11.5761905 C1.97979798,12.0619048 1.97979798,12.547619 2.02020202,12.9928571 C2.06060606,13.4380952 2.14141414,13.8428571 2.26262626,14.1666667 C2.42424242,14.4904762 2.62626263,14.7333333 2.94949495,14.9357143 C3.23232323,15.1380952 3.67676768,15.2190476 4.24242424,15.2190476 C5.13131313,15.2190476 5.77777778,14.9357143 6.1010101,14.4095238 C6.42424242,13.8833333 6.62626263,12.952381 6.62626263,11.697619 L6.62626263,0.242857143 L8.4040404,0.242857143 L8.4040404,11.5761905 C8.4040404,11.8595238 8.4040404,12.1833333 8.36363636,12.5880952 C8.36363636,12.952381 8.28282828,13.3571429 8.24242424,13.7214286 C8.16161616,14.0857143 8.04040404,14.4904762 7.87878788,14.8547619 C7.71717172,15.2190476 7.47474747,15.5428571 7.15151515,15.8261905 C6.82828283,16.1095238 6.46464646,16.352381 5.97979798,16.5142857 C5.49494949,16.6761905 4.92929293,16.797619 4.2020202,16.797619 C3.19191919,16.797619 2.42424242,16.6357143 1.85858586,16.3119048 C1.29292929,15.9880952 0.888888889,15.5833333 0.646464646,15.097619 C0.404040404,14.6119048 0.242424242,14.0452381 0.202020202,13.4380952 C0.161616162,12.8309524 0.121212121,12.2238095 0.121212121,11.6166667 L0.121212121,0.283333333 L1.97979798,0.283333333 L1.97979798,0.242857143 Z" id="Path"></path>
            <polygon id="Path" points="10.0606061 0.242857143 12.040404 0.242857143 14.2222222 6.07142857 16.4848485 0.242857143 18.3030303 0.242857143 15.1111111 7.69047619 18.7070707 16.4333333 16.6060606 16.4333333 14.020202 9.71428571 11.4343434 16.4738095 9.61616162 16.4738095 13.1717172 8.01428571"></polygon>
            <path d="M20.2828283,0.242857143 L23.4343434,0.242857143 C24.2828283,0.242857143 25.010101,0.323809524 25.6161616,0.485714286 C26.1818182,0.647619048 26.7070707,1.01190476 27.1515152,1.53809524 C27.2727273,1.7 27.3939394,1.86190476 27.5151515,2.06428571 C27.6363636,2.26666667 27.7575758,2.50952381 27.8787879,2.79285714 C28,3.07619048 28.0808081,3.4 28.1212121,3.76428571 C28.2020202,4.12857143 28.2020202,4.57380952 28.2020202,5.05952381 C28.2020202,5.70714286 28.1212121,6.31428571 27.959596,6.88095238 C27.7979798,7.44761905 27.5555556,7.97380952 27.1919192,8.41904762 C26.8282828,8.86428571 26.3838384,9.18809524 25.8181818,9.47142857 C25.2525253,9.71428571 24.5656566,9.83571429 23.7171717,9.83571429 L22.1414141,9.83571429 L22.1414141,16.4333333 L20.2828283,16.4333333 L20.2828283,0.242857143 Z M22.1414141,8.29761905 L23.6767677,8.29761905 C24.040404,8.29761905 24.4040404,8.25714286 24.7272727,8.17619048 C25.0505051,8.0952381 25.3333333,7.93333333 25.5757576,7.73095238 C25.8181818,7.48809524 26.020202,7.16428571 26.1414141,6.75952381 C26.2626263,6.3547619 26.3434343,5.78809524 26.3434343,5.14047619 C26.3434343,4.33095238 26.2222222,3.68333333 26.020202,3.23809524 C25.8181818,2.79285714 25.5353535,2.46904762 25.2525253,2.26666667 C24.969697,2.06428571 24.6464646,1.94285714 24.3232323,1.90238095 C24,1.86190476 23.7575758,1.86190476 23.5151515,1.86190476 L22.1010101,1.86190476 L22.1010101,8.29761905 L22.1414141,8.29761905 Z" id="Shape"></path>
            <path d="M31.4343434,0.242857143 L31.4343434,2.30714286 L29.6161616,2.30714286 L29.6161616,0.242857143 L31.4343434,0.242857143 Z M29.6969697,4.45238095 L31.3535354,4.45238095 L31.3535354,16.4333333 L29.6969697,16.4333333 L29.6969697,4.45238095 Z" id="Shape"></path>
            <path d="M33.2525253,4.45238095 L34.7878788,4.45238095 L34.7878788,6.27380952 C34.8282828,6.15238095 34.9090909,5.95 35.030303,5.70714286 C35.1515152,5.46428571 35.3131313,5.22142857 35.5151515,5.01904762 C35.7171717,4.77619048 36,4.57380952 36.2828283,4.41190476 C36.6060606,4.25 36.969697,4.16904762 37.4141414,4.16904762 C37.9393939,4.16904762 38.3838384,4.29047619 38.7474747,4.49285714 C39.1111111,4.73571429 39.4343434,5.01904762 39.5959596,5.38333333 C39.7979798,5.74761905 39.9191919,6.23333333 39.959596,6.88095238 C40,7.48809524 40,8.13571429 40,8.82380952 L40,16.4333333 L38.3838384,16.4333333 L38.3838384,8.86428571 C38.3838384,8.5 38.3838384,8.13571429 38.3434343,7.73095238 C38.3434343,7.36666667 38.2626263,7.04285714 38.1818182,6.71904762 C38.1010101,6.43571429 37.9393939,6.19285714 37.7373737,5.99047619 C37.5353535,5.78809524 37.2525253,5.70714286 36.8888889,5.70714286 C36.4444444,5.70714286 36.1212121,5.82857143 35.8383838,6.11190476 C35.5959596,6.3952381 35.3939394,6.71904762 35.2727273,7.08333333 C35.1515152,7.48809524 35.0707071,7.89285714 35.030303,8.33809524 C34.989899,8.78333333 34.989899,9.18809524 34.989899,9.51190476 L34.989899,16.4333333 L33.3333333,16.4333333 L33.3333333,4.45238095 L33.2525253,4.45238095 Z" id="Path"></path>
        </g>
    </g>
</svg>