<?xml version="1.0" encoding="UTF-8"?>
<svg width="48px" height="48px" viewBox="0 0 48 48" version="1.1" xmlns="http://www.w3.org/2000/svg" xmlns:xlink="http://www.w3.org/1999/xlink">
    <!-- Generator: Sketch 55.2 (78181) - https://sketchapp.com -->
    <title>vimeo</title>
    <desc>Created with Sketch.</desc>
    <g id="vimeo" stroke="none" stroke-width="1" fill="none" fill-rule="evenodd">
        <g id="iconfinder_social_style_3_vimeo_341112" transform="translate(5.000000, 7.000000)" fill="#44BBFF" fill-rule="nonzero">
            <path d="M5.78736743,10.0403181 C6.84825469,11.3266225 10.8986779,26.8585416 12.2507223,29.7237208 C13.4308036,32.2363905 16.6859759,35.5582245 20.2556731,33.1859936 C23.8233074,30.8136758 35.6872027,20.4269626 37.8109055,8.16096802 C39.9327495,-4.10115235 23.5341448,-1.53248452 21.7971344,9.1507582 C26.1385747,6.47796629 28.4559048,10.2367523 26.2343141,14.4924487 C24.0167285,18.7440489 21.9904686,21.5169863 20.9294435,21.5169863 C19.8704812,21.5169863 19.0557851,18.6718157 17.8424494,13.6989403 C16.5881574,8.55771149 16.5958768,-0.70305629 11.3811064,0.346864672 C6.46326909,1.33665485 0,9.25099066 0,9.25099066 L1.54352309,11.3266225 C1.54352309,11.3266225 4.7264096,8.75384083 5.78736743,10.0403181 Z" id="Oval-1"></path>
        </g>
    </g>
</svg>