<svg width="512" height="512" viewBox="0 0 512 512" fill="none" xmlns="http://www.w3.org/2000/svg">
<rect width="512" height="512" rx="64" fill="#F8DBD5"/>
<path d="M365.096 123.982C340.372 123.982 313.885 143.056 292.612 187.991L265.271 122.238H263.527C258.995 132.704 245.022 138.297 231.768 138.297H87.9746V141.084C99.4834 145.976 109.608 162.717 119.031 185.413L208.391 401.805H211.178L269.253 260.95L327.403 401.805H330.191L379.752 278.242C398.94 229.723 411.511 202.856 411.511 178.777C411.53 146.677 393.726 123.982 365.096 123.982ZM231.067 326.969L173.144 185.773C163.72 162.736 172.442 146.336 196.18 146.336C217.112 146.336 227.597 160.291 238.063 185.432L263.659 247.394L231.067 326.969ZM369.988 274.07L349.776 325.452L296.081 196.334C309.24 177.279 326.266 170.055 345.89 170.055C369.267 170.055 383.241 186.114 383.241 215.085C383.26 231.145 379.07 251.034 369.988 274.07Z" fill="black"/>
</svg>
