<?xml version="1.0" encoding="UTF-8"?>
<svg width="48px" height="48px" viewBox="0 0 48 48" version="1.1" xmlns="http://www.w3.org/2000/svg" xmlns:xlink="http://www.w3.org/1999/xlink">
    <!-- Generator: Sketch 55.2 (78181) - https://sketchapp.com -->
    <title>zoho copy</title>
    <desc>Created with Sketch.</desc>
    <defs>
        <linearGradient x1="43.4834123%" y1="13.2475416%" x2="57.2274882%" y2="87.5287945%" id="linearGradient-1">
            <stop stop-color="#D71F31" offset="0%"></stop>
            <stop stop-color="#BB2539" offset="100%"></stop>
        </linearGradient>
    </defs>
    <g id="zoho-copy" stroke="none" stroke-width="1" fill="none" fill-rule="evenodd">
        <g id="zoho-logo" transform="translate(7.000000, 2.000000)" fill-rule="nonzero">
            <polygon id="Path" fill="url(#linearGradient-1)" points="28.5591209 11.0382222 32.9438242 37.4453333 4.56685714 41.8133333 0 15.0453333"></polygon>
            <polygon id="Path" fill="#761116" points="30.4587253 1.20711111 34.8434286 27.9751111 32.9438242 37.4453333 28.5591209 11.0382222"></polygon>
            <path d="M25.5145495,33.2888889 C25.2812053,33.0228817 24.9262235,32.883351 24.5647473,32.9155556 C24.1471186,32.7767155 23.7050843,32.7175253 23.2636484,32.7413333 C22.689755,32.7222474 22.115924,32.7809025 21.5592088,32.9155556 L13.9347692,34.0106667 C14.1061806,33.2304427 14.4282933,32.4876583 14.8845714,31.8204444 C15.5849228,30.4920012 16.4833954,29.2679516 17.5518242,28.1866667 L17.5518242,28.1866667 C17.9421538,27.8257778 18.3194725,27.2782222 18.5146374,27.0915556 C18.7099293,26.7991827 18.9669741,26.5490917 19.2692747,26.3573333 C20.7446344,24.8802949 21.7937232,23.0621545 22.3138462,21.0808889 C22.5200571,20.3655919 22.6465345,19.6314285 22.6911648,18.8906667 L22.6911648,18.1688889 C22.7113042,17.6158719 22.6499852,17.0628954 22.509011,16.5262222 C22.4653881,16.0925478 22.3374189,15.6704891 22.1316923,15.2817778 C21.9365275,15.0951111 21.7413626,14.5475556 21.364044,14.5475556 C21.0059301,14.391369 20.6101862,14.3311512 20.2190769,14.3733333 C19.6455054,14.3620559 19.0727633,14.4205997 18.5146374,14.5475556 L9.9403956,15.792 C8.99059341,15.9662222 8.04079121,16.1528889 7.65046154,16.7004444 C7.26638989,17.0275087 7.00192779,17.4636233 6.89582418,17.9448889 L6.89582418,18.3555556 C7.01555693,19.0308014 7.43249109,19.6244389 8.04079121,19.9857778 C8.45212063,20.1484323 8.89876798,20.2125122 9.34189011,20.1724444 L10.4868571,20.1724444 L17.9161319,19.0773333 L17.9161319,19.4382222 C17.9426437,19.8615207 17.8761613,20.2854373 17.720967,20.6826667 C17.2918425,21.6138892 16.7122798,22.474775 16.0035165,23.2337778 C15.5855498,23.6166906 15.2025048,24.0330155 14.8585495,24.4782222 C13.230285,26.27086 11.8244182,28.2377244 10.669011,30.3395556 L10.669011,30.3395556 C10.1021246,31.4289856 9.71585192,32.5961211 9.52404396,33.7991111 C9.36268302,34.3959475 9.29688006,35.0127366 9.32887912,35.6284444 L9.32887912,36.7235556 C9.37250197,37.15723 9.50047123,37.5792887 9.7061978,37.968 C9.90136264,38.3288889 10.0965275,38.7022222 10.4738462,38.7022222 C10.669011,39.0631111 11.0463297,39.0631111 11.6188132,39.0631111 C12.5725305,39.0821057 13.5261168,39.0196355 14.4682198,38.8764444 L22.2748132,37.632 C23.3033019,37.6144338 24.3017797,37.2975473 25.1372308,36.7235556 C25.5171368,36.393257 25.7807608,35.9585244 25.8918681,35.4791111 L25.8918681,35.1182222 C26.087033,33.7991111 25.8918681,33.4382222 25.5145495,33.2888889 Z" id="Shape" fill="#FFFFFF"></path>
            <polygon id="Path" fill="#EA463E" points="0 15.0453333 0.377318681 12.32 1.8996044 5.57511111 30.4587253 1.20711111 28.5591209 11.0382222"></polygon>
        </g>
    </g>
</svg>