<?xml version="1.0" encoding="UTF-8"?>
<svg width="72px" height="72px" viewBox="0 0 72 72" version="1.1" xmlns="http://www.w3.org/2000/svg" xmlns:xlink="http://www.w3.org/1999/xlink">
    <!-- Generator: Sketch 57.1 (83088) - https://sketch.com -->
    <title>extension_toolbar_icon</title>
    <desc>Created with Sketch.</desc>
    <g id="Page-1" stroke="none" stroke-width="1" fill="none" fill-rule="evenodd">
        <g id="extension_toolbar_icon" fill-rule="nonzero">
            <path d="M35.9346555,0 C55.7808176,-3.64568085e-15 71.8693109,16.0884933 71.8693109,35.9346555 C71.8693109,55.7808176 55.7808176,71.8693109 35.9346555,71.8693109 C16.0884933,71.8693109 2.4304539e-15,55.7808176 0,35.9346555 C-2.4304539e-15,16.0884933 16.0884933,3.64568085e-15 35.9346555,0 Z" id="Rectangle" fill="#FFD02F"></path>
            <path d="M36,60 C49.254834,60 60,49.254834 60,36 C60,22.745166 49.254834,12 36,12 C22.745166,12 12,22.745166 12,36 C12,49.254834 22.745166,60 36,60 Z" id="Path" fill="#FFD02F"></path>
            <path d="M36,12 C49.254834,12 60,22.745166 60,36 C60,41.5461494 58.118745,46.6529081 54.9595466,50.7169646 L68.1213203,63.8786797 C69.2928932,65.0502525 69.2928932,66.9497475 68.1213203,68.1213203 C66.9497475,69.2928932 65.0502525,69.2928932 63.8786797,68.1213203 L63.8786797,68.1213203 L50.7169646,54.9595466 C46.6529081,58.118745 41.5461494,60 36,60 C22.745166,60 12,49.254834 12,36 C12,22.745166 22.745166,12 36,12 Z M36,18 C26.0588745,18 18,26.0588745 18,36 C18,45.9411255 26.0588745,54 36,54 C45.9411255,54 54,45.9411255 54,36 C54,26.0588745 45.9411255,18 36,18 Z" id="magnifying-glass" fill="#050038"></path>
        </g>
    </g>
</svg>