<?xml version="1.0" encoding="UTF-8"?>
<svg width="48px" height="48px" viewBox="0 0 48 48" version="1.1" xmlns="http://www.w3.org/2000/svg" xmlns:xlink="http://www.w3.org/1999/xlink">
    <g id="icon-48" stroke="none" stroke-width="1" fill="none" fill-rule="evenodd">
        <g transform="translate(2.000000, 4.000000)">
            <path d="M11,34 L25.7573593,34 C28.5187831,34 30.7573593,31.7614237 30.7573593,29 C30.7573593,27.6739176 30.2305751,26.402148 29.2928932,25.4644661 L17.5355339,13.7071068 C17.1450096,13.3165825 17.1450096,12.6834175 17.5355339,12.2928932 C17.7230703,12.1053568 17.9774242,12 18.2426407,12 L28,12 L28,8 L18.2426407,8 C16.9165582,8 15.6447887,8.5267842 14.7071068,9.46446609 C12.7544853,11.4170876 12.7544853,14.5829124 14.7071068,16.5355339 L26.4644661,28.2928932 C26.6520025,28.4804296 26.7573593,28.7347835 26.7573593,29 C26.7573593,29.5522847 26.3096441,30 25.7573593,30 L11,30 L11,34 Z" id="Path-4-Copy" fill="#FF6575" fill-rule="nonzero"></path>
            <path d="M29.0429,0.859550012 L41.2074413,8.29343633 C42.1499504,8.86941411 42.4470827,10.1003909 41.8711049,11.0429 C41.7056577,11.3136318 41.4781731,11.5411165 41.2074413,11.7065637 L29.0429,19.14045 C28.1003909,19.7164278 26.8694141,19.4192954 26.2934363,18.4767863 C26.1015378,18.1627705 26,17.8018958 26,17.4338863 L26,2.56611368 C26,1.46154418 26.8954305,0.566113679 28,0.566113679 C28.3680095,0.566113679 28.7288842,0.66765145 29.0429,0.859550012 Z M30,13.8677726 L36.3290825,10 L30,6.13222736 L30,13.8677726 Z" id="Rectangle-Copy-7" fill="#050038" fill-rule="nonzero"></path>
            <path d="M5.22182541,24.2218254 L16.7781746,24.2218254 C17.8827441,24.2218254 18.7781746,25.1172559 18.7781746,26.2218254 L18.7781746,37.7781746 C18.7782079,38.8827441 17.8827774,39.7781746 16.7782079,39.7781746 C16.7781968,39.7781746 16.7781857,39.7781746 16.7781746,39.7781413 L5.22208436,39.7779489 C4.11754086,39.777864 3.22213604,38.8824591 3.22205106,37.7779156 L3.2218587,26.2218254 C3.22180702,25.1172559 4.11722261,24.2218105 5.22179211,24.2217921 C5.22180321,24.2217921 5.22181431,24.2217921 5.22182541,24.2218254 Z" id="Rectangle-Copy-8" fill="#3F53D9" transform="translate(11.000000, 32.000000) rotate(-45.000000) translate(-11.000000, -32.000000) "></path>
        </g>
    </g>
</svg>
